<?xml version="1.0" encoding="utf-8"?>
<!DOCTYPE svg
  PUBLIC '-//W3C//DTD SVG 1.0//EN'
  'http://www.w3.org/TR/2001/REC-SVG-20010904/DTD/svg10.dtd'>
<svg width="1050" height="1090" preserveAspectRatio="xMinYMin meet" viewBox="0 0 1050 1090" xmlns="http://www.w3.org/2000/svg" version="1.0" fill-rule="evenodd" xmlns:xlink="http://www.w3.org/1999/xlink">
	<title>...</title>
	<desc>...</desc>
	<clipPath id="clip">
		<rect x="0" y="0" width="1050" height="1090"/>
	</clipPath>
	<g id="group" transform="scale(1,-1) translate(0,-1090)" style="clip-path: url(#clip)">
		<g transform="">
			<rect x="0" y="0" width="1050" height="1090" style="stroke: none; stroke-linecap: butt; stroke-width: 1; fill: rgb(100%,100%,100%); fill-rule: evenodd;"/>
			<text x="75" y="1055" style="font-family: Helvetica-Bold; font-size: 18px;fill: rgb(8%,17%,25%); stroke:none;" transform="translate(0,2110) scale(1,-1)">Calhoun County, WV | 24h | CV 20260918</text>
			<text x="75" y="1031" style="font-family: Helvetica; font-size: 11px;fill: rgb(32%,40%,47%); stroke:none;" transform="translate(0,2062) scale(1,-1)">Frozen OOF diagnosis. Outage observations end at hour 71; future truth is shown for diagnosis only.</text>
			<g transform="">
				<g transform="">
					<g transform="">
						<path d="M 75,795 L 970,795 Z" style="stroke: rgb(59%,65%,70%); stroke-linecap: butt; stroke-width: 1;"/>
					</g>
					<g transform="">
						<path d="M 75,795 L 75,790 Z" style="stroke: rgb(59%,65%,70%); stroke-linecap: butt; stroke-width: 1;"/>
						<path d="M 255.504202,795 L 255.504202,790 Z" style="stroke: rgb(59%,65%,70%); stroke-linecap: butt; stroke-width: 1;"/>
						<path d="M 436.008403,795 L 436.008403,790 Z" style="stroke: rgb(59%,65%,70%); stroke-linecap: butt; stroke-width: 1;"/>
						<path d="M 616.512605,795 L 616.512605,790 Z" style="stroke: rgb(59%,65%,70%); stroke-linecap: butt; stroke-width: 1;"/>
						<path d="M 797.016807,795 L 797.016807,790 Z" style="stroke: rgb(59%,65%,70%); stroke-linecap: butt; stroke-width: 1;"/>
						<path d="M 970,795 L 970,790 Z" style="stroke: rgb(59%,65%,70%); stroke-linecap: butt; stroke-width: 1;"/>
					</g>
					<g transform="">
						<g transform=" matrix(1,0,0,1,75,790)">
							<text x="-4.448" y="-8.0" style="font-family: Helvetica; font-size: 8px;fill: rgb(0%,0%,0%); stroke:none;" transform="translate(0,-16) scale(1,-1)">96</text>
						</g>
						<g transform=" matrix(1,0,0,1,255.504202,790)">
							<text x="-6.672" y="-8.0" style="font-family: Helvetica; font-size: 8px;fill: rgb(0%,0%,0%); stroke:none;" transform="translate(0,-16) scale(1,-1)">120</text>
						</g>
						<g transform=" matrix(1,0,0,1,436.008403,790)">
							<text x="-6.672" y="-8.0" style="font-family: Helvetica; font-size: 8px;fill: rgb(0%,0%,0%); stroke:none;" transform="translate(0,-16) scale(1,-1)">144</text>
						</g>
						<g transform=" matrix(1,0,0,1,616.512605,790)">
							<text x="-6.672" y="-8.0" style="font-family: Helvetica; font-size: 8px;fill: rgb(0%,0%,0%); stroke:none;" transform="translate(0,-16) scale(1,-1)">168</text>
						</g>
						<g transform=" matrix(1,0,0,1,797.016807,790)">
							<text x="-6.672" y="-8.0" style="font-family: Helvetica; font-size: 8px;fill: rgb(0%,0%,0%); stroke:none;" transform="translate(0,-16) scale(1,-1)">192</text>
						</g>
						<g transform=" matrix(1,0,0,1,970,790)">
							<text x="-6.672" y="-8.0" style="font-family: Helvetica; font-size: 8px;fill: rgb(0%,0%,0%); stroke:none;" transform="translate(0,-16) scale(1,-1)">215</text>
						</g>
					</g>
				</g>
				<g transform="">
					<g transform="">
						<path d="M 75,795 L 75,962 Z" style="stroke: rgb(59%,65%,70%); stroke-linecap: butt; stroke-width: 1;"/>
					</g>
					<g transform="">
						<path d="M 75,795 L 70,795 Z" style="stroke: rgb(59%,65%,70%); stroke-linecap: butt; stroke-width: 1;"/>
						<path d="M 75,835.857269 L 70,835.857269 Z" style="stroke: rgb(59%,65%,70%); stroke-linecap: butt; stroke-width: 1;"/>
						<path d="M 75,876.714537 L 70,876.714537 Z" style="stroke: rgb(59%,65%,70%); stroke-linecap: butt; stroke-width: 1;"/>
						<path d="M 75,917.571806 L 70,917.571806 Z" style="stroke: rgb(59%,65%,70%); stroke-linecap: butt; stroke-width: 1;"/>
						<path d="M 75,958.429075 L 70,958.429075 Z" style="stroke: rgb(59%,65%,70%); stroke-linecap: butt; stroke-width: 1;"/>
					</g>
					<g transform="">
						<g transform=" matrix(1,0,0,1,70,795)">
							<text x="-20.016000000000002" y="-3.2" style="font-family: Helvetica; font-size: 8px;fill: rgb(0%,0%,0%); stroke:none;" transform="translate(0,-6) scale(1,-1)">0.000</text>
						</g>
						<g transform=" matrix(1,0,0,1,70,835.857269)">
							<text x="-20.016000000000002" y="-3.2" style="font-family: Helvetica; font-size: 8px;fill: rgb(0%,0%,0%); stroke:none;" transform="translate(0,-6) scale(1,-1)">0.050</text>
						</g>
						<g transform=" matrix(1,0,0,1,70,876.714537)">
							<text x="-20.016000000000002" y="-3.2" style="font-family: Helvetica; font-size: 8px;fill: rgb(0%,0%,0%); stroke:none;" transform="translate(0,-6) scale(1,-1)">0.100</text>
						</g>
						<g transform=" matrix(1,0,0,1,70,917.571806)">
							<text x="-20.016000000000002" y="-3.2" style="font-family: Helvetica; font-size: 8px;fill: rgb(0%,0%,0%); stroke:none;" transform="translate(0,-6) scale(1,-1)">0.150</text>
						</g>
						<g transform=" matrix(1,0,0,1,70,958.429075)">
							<text x="-20.016000000000002" y="-3.2" style="font-family: Helvetica; font-size: 8px;fill: rgb(0%,0%,0%); stroke:none;" transform="translate(0,-6) scale(1,-1)">0.200</text>
						</g>
					</g>
				</g>
				<path d="M 75,835.857269 L 970,835.857269 Z" style="stroke: rgb(89%,90%,92%); stroke-linecap: butt; stroke-width: 0.25;"/>
				<path d="M 75,876.714537 L 970,876.714537 Z" style="stroke: rgb(89%,90%,92%); stroke-linecap: butt; stroke-width: 0.25;"/>
				<path d="M 75,917.571806 L 970,917.571806 Z" style="stroke: rgb(89%,90%,92%); stroke-linecap: butt; stroke-width: 0.25;"/>
				<path d="M 75,958.429075 L 970,958.429075 Z" style="stroke: rgb(89%,90%,92%); stroke-linecap: butt; stroke-width: 0.25;"/>
				<g transform="">
					<polyline points="75 795, 82.52101 795, 90.04202 795, 97.56303 795, 105.084 795, 112.605 795, 120.1261 795, 127.6471 795, 135.1681 795, 142.6891 795, 150.2101 795, 157.7311 795, 165.2521 795, 172.7731 795, 180.2941 795, 187.8151 795.2451, 195.3361 796.2257, 202.8571 796.7977, 210.3782 797.3697, 217.8992 797.4514, 225.4202 796.0623, 232.9412 795.4903, 240.4622 795.4903, 247.9832 795.4086, 255.5042 795.2451, 263.0252 795.0817, 270.5462 795, 278.0672 795, 285.5882 795, 293.1092 795.0817, 300.6303 796.0623, 308.1513 798.9223, 315.6723 800.9652, 323.1933 795.9806, 330.7143 796.144, 338.2353 799.8212, 345.7563 801.0469, 353.2773 799.9846, 360.7983 799.3309, 368.3193 796.8794, 375.8403 796.9611, 383.3613 804.9692, 390.8824 839.943, 398.4034 878.2671, 405.9244 941.6776, 413.4454 951.0748, 420.9664 943.7205, 428.4874 923.2918, 436.0084 928.1947, 443.5294 933.5879, 451.0504 921.5758, 458.5714 917.9804, 466.0924 914.8752, 473.6134 914.0581, 481.1345 913.3227, 488.6555 912.5872, 496.1765 912.7506, 503.6975 911.7701, 511.2185 900.9838, 518.7395 921.3307, 526.2605 938.1639, 533.7815 899.4312, 541.3025 875.162, 548.8235 864.6208, 556.3445 865.7648, 563.8655 862.8231, 571.3866 850.811, 578.9076 844.3556, 586.4286 837.9818, 593.9496 837.4098, 601.4706 836.5927, 608.9916 835.2036, 616.5126 833.651, 624.0336 822.2927, 631.5546 821.3121, 639.0756 822.1292, 646.5966 825.3161, 654.1176 824.7441, 661.6387 824.4172, 669.1597 829.647, 676.6807 827.8492, 684.2017 826.5418, 691.7227 815.8372, 699.2437 812.2418, 706.7647 808.2378, 714.2857 805.9497, 721.8067 802.7629, 729.3277 799.3309, 736.8487 798.1869, 744.3697 797.0429, 751.8908 796.3074, 759.4118 795.572, 766.9328 795.4086, 774.4538 795.3269, 781.9748 795.0817, 789.4958 795.0817, 797.0168 795, 804.5378 795, 812.0588 795, 819.5798 795, 827.1008 795, 834.6218 795, 842.1429 795.1634, 849.6639 795.2451, 857.1849 795.2451, 864.7059 795.3269, 872.2269 795.4086, 879.7479 795.2451, 887.2689 795.1634, 894.7899 795.1634, 902.3109 795.1634, 909.8319 795.1634, 917.3529 795.1634, 924.8739 795.2451, 932.395 795.1634, 939.916 795.1634, 947.437 795.1634, 954.958 795.1634, 962.479 795.1634, 970 795.1634" style="stroke: rgb(8%,17%,25%); stroke-linecap: round; stroke-width: 1.7; fill: None; fill-rule: evenodd;"/>
					<polyline points="75 819.6694, 82.52101 811.8547, 90.04202 811.2034, 97.56303 808.8361, 105.084 808.9579, 112.605 816.0186, 120.1261 803.3893, 127.6471 815.949, 135.1681 826.5814, 142.6891 822.5819, 150.2101 820.6141, 157.7311 816.8613, 165.2521 820.5234, 172.7731 818.7339, 180.2941 822.5984, 187.8151 820.6443, 195.3361 824.4832, 202.8571 824.8536, 210.3782 824.0102, 217.8992 825.2339, 225.4202 828.1603, 232.9412 827.9732, 240.4622 826.5047, 247.9832 816.7589, 255.5042 813.7494, 263.0252 819.6967, 270.5462 815.6413, 278.0672 820.3638, 285.5882 815.9092, 293.1092 824.0258, 300.6303 824.446, 308.1513 818.7256, 315.6723 825.0367, 323.1933 825.1505, 330.7143 823.1556, 338.2353 836.4461, 345.7563 837.7728, 353.2773 839.0502, 360.7983 841.4976, 368.3193 841.3134, 375.8403 844.3793, 383.3613 848.585, 390.8824 847.9977, 398.4034 855.1285, 405.9244 869.0766, 413.4454 865.9926, 420.9664 868.1148, 428.4874 868.5202, 436.0084 878.846, 443.5294 878.6768, 451.0504 879.1541, 458.5714 873.414, 466.0924 874.2331, 473.6134 879.4462, 481.1345 874.4445, 488.6555 870.1975, 496.1765 865.434, 503.6975 865.9144, 511.2185 866.4558, 518.7395 867.6648, 526.2605 864.7141, 533.7815 862.5629, 541.3025 858.874, 548.8235 856.4026, 556.3445 856.7254, 563.8655 855.6912, 571.3866 847.1173, 578.9076 845.6482, 586.4286 835.7847, 593.9496 831.7976, 601.4706 828.3067, 608.9916 827.0998, 616.5126 825.8471, 624.0336 819.8955, 631.5546 824.1852, 639.0756 819.1478, 646.5966 824.5079, 654.1176 819.9271, 661.6387 822.1868, 669.1597 823.618, 676.6807 820.138, 684.2017 820.1996, 691.7227 819.048, 699.2437 815.4831, 706.7647 820.5894, 714.2857 820.5193, 721.8067 818.5368, 729.3277 817.7936, 736.8487 816.2473, 744.3697 815.2017, 751.8908 818.6214, 759.4118 816.6985, 766.9328 814.0528, 774.4538 811.5259, 781.9748 811.5295, 789.4958 811.6143, 797.0168 806.867, 804.5378 819.3436, 812.0588 819.4311, 819.5798 819.6868, 827.1008 819.5361, 834.6218 806.9596, 842.1429 816.6055, 849.6639 816.5846, 857.1849 808.2403, 864.7059 806.101, 872.2269 803.818, 879.7479 805.3735, 887.2689 805.249, 894.7899 805.0796, 902.3109 816.5859, 909.8319 817.2396, 917.3529 806.7119, 924.8739 806.8603, 932.395 811.1328, 939.916 810.0196, 947.437 810.566, 954.958 809.8913, 962.479 809.9493, 970 808.0247" style="stroke: rgb(82%,45%,9%); stroke-linecap: round; stroke-width: 1.7; fill: None; fill-rule: evenodd; stroke-dasharray: 4, 2;"/>
					<polyline points="75 816.2094, 82.52101 801.6636, 90.04202 801.5197, 97.56303 800.1511, 105.084 800.089, 112.605 813.5554, 120.1261 797.8784, 127.6471 814.9758, 135.1681 821.2919, 142.6891 819.6842, 150.2101 816.0619, 157.7311 813.7817, 165.2521 816.5169, 172.7731 814.3611, 180.2941 819.8486, 187.8151 819.3788, 195.3361 822.0301, 202.8571 822.3255, 210.3782 821.4702, 217.8992 823.3694, 225.4202 824.6141, 232.9412 825.8137, 240.4622 823.4767, 247.9832 812.822, 255.5042 812.0491, 263.0252 817.9481, 270.5462 815.3361, 278.0672 818.7861, 285.5882 814.5266, 293.1092 822.9968, 300.6303 825.3389, 308.1513 816.6868, 315.6723 824.4882, 323.1933 823.7146, 330.7143 824.0236, 338.2353 834.4478, 345.7563 839.1216, 353.2773 838.85, 360.7983 840.8212, 368.3193 841.4016, 375.8403 844.7623, 383.3613 850.953, 390.8824 849.6079, 398.4034 856.3588, 405.9244 867.3088, 413.4454 864.8298, 420.9664 866.9821, 428.4874 867.0644, 436.0084 876.6929, 443.5294 876.2305, 451.0504 877.0136, 458.5714 871.1621, 466.0924 870.3008, 473.6134 877.5727, 481.1345 872.3048, 488.6555 869.9531, 496.1765 863.9672, 503.6975 861.3324, 511.2185 861.514, 518.7395 862.2599, 526.2605 859.7701, 533.7815 858.2999, 541.3025 856.1857, 548.8235 854.9296, 556.3445 854.5237, 563.8655 853.2891, 571.3866 847.3809, 578.9076 846.7997, 586.4286 834.9173, 593.9496 830.9415, 601.4706 827.5918, 608.9916 825.6786, 616.5126 825.0785, 624.0336 819.0537, 631.5546 823.4307, 639.0756 817.9382, 646.5966 821.3057, 654.1176 817.0894, 661.6387 820.3188, 669.1597 820.3028, 676.6807 818.5094, 684.2017 818.3533, 691.7227 818.4066, 699.2437 813.0918, 706.7647 818.063, 714.2857 818.1372, 721.8067 815.7217, 729.3277 815.1163, 736.8487 813.8798, 744.3697 812.6333, 751.8908 816.5271, 759.4118 813.0185, 766.9328 799.7968, 774.4538 799.2411, 781.9748 799.2411, 789.4958 799.246, 797.0168 798.2738, 804.5378 817.1297, 812.0588 817.1289, 819.5798 817.2489, 827.1008 817.2261, 834.6218 798.2896, 842.1429 814.8499, 849.6639 814.829, 857.1849 799.0997, 864.7059 798.6652, 872.2269 797.958, 879.7479 798.0677, 887.2689 798.1988, 894.7899 797.7081, 902.3109 812.9829, 909.8319 814.747, 917.3529 798.1402, 924.8739 798.184, 932.395 799.3698, 939.916 799.4951, 947.437 799.4885, 954.958 799.4902, 962.479 799.6544, 970 799.1886" style="stroke: rgb(21%,47%,74%); stroke-linecap: round; stroke-width: 1.7; fill: None; fill-rule: evenodd;"/>
				</g>
			</g>
			<text x="75" y="994" style="font-family: Helvetica-Bold; font-size: 12px;fill: rgb(8%,17%,25%); stroke:none;" transform="translate(0,1988) scale(1,-1)">Final OSI: common error and timing</text>
			<path d="M 75,978 L 95,978 Z" style="stroke: rgb(8%,17%,25%); stroke-linecap: butt; stroke-width: 2;"/>
			<text x="101" y="975" style="font-family: Helvetica; font-size: 9px;fill: rgb(20%,25%,33%); stroke:none;" transform="translate(0,1950) scale(1,-1)">Official OSI</text>
			<path d="M 285,978 L 305,978 Z" style="stroke: rgb(82%,45%,9%); stroke-linecap: butt; stroke-width: 2;"/>
			<text x="311" y="975" style="font-family: Helvetica; font-size: 9px;fill: rgb(20%,25%,33%); stroke:none;" transform="translate(0,1950) scale(1,-1)">Current tree T</text>
			<path d="M 495,978 L 515,978 Z" style="stroke: rgb(21%,47%,74%); stroke-linecap: butt; stroke-width: 2;"/>
			<text x="521" y="975" style="font-family: Helvetica; font-size: 9px;fill: rgb(20%,25%,33%); stroke:none;" transform="translate(0,1950) scale(1,-1)">Stella L2</text>
			<g transform="">
				<g transform="">
					<g transform="">
						<path d="M 75,551 L 970,551 Z" style="stroke: rgb(59%,65%,70%); stroke-linecap: butt; stroke-width: 1;"/>
					</g>
					<g transform="">
						<path d="M 75,551 L 75,546 Z" style="stroke: rgb(59%,65%,70%); stroke-linecap: butt; stroke-width: 1;"/>
						<path d="M 255.504202,551 L 255.504202,546 Z" style="stroke: rgb(59%,65%,70%); stroke-linecap: butt; stroke-width: 1;"/>
						<path d="M 436.008403,551 L 436.008403,546 Z" style="stroke: rgb(59%,65%,70%); stroke-linecap: butt; stroke-width: 1;"/>
						<path d="M 616.512605,551 L 616.512605,546 Z" style="stroke: rgb(59%,65%,70%); stroke-linecap: butt; stroke-width: 1;"/>
						<path d="M 797.016807,551 L 797.016807,546 Z" style="stroke: rgb(59%,65%,70%); stroke-linecap: butt; stroke-width: 1;"/>
						<path d="M 970,551 L 970,546 Z" style="stroke: rgb(59%,65%,70%); stroke-linecap: butt; stroke-width: 1;"/>
					</g>
					<g transform="">
						<g transform=" matrix(1,0,0,1,75,546)">
							<text x="-4.448" y="-8.0" style="font-family: Helvetica; font-size: 8px;fill: rgb(0%,0%,0%); stroke:none;" transform="translate(0,-16) scale(1,-1)">96</text>
						</g>
						<g transform=" matrix(1,0,0,1,255.504202,546)">
							<text x="-6.672" y="-8.0" style="font-family: Helvetica; font-size: 8px;fill: rgb(0%,0%,0%); stroke:none;" transform="translate(0,-16) scale(1,-1)">120</text>
						</g>
						<g transform=" matrix(1,0,0,1,436.008403,546)">
							<text x="-6.672" y="-8.0" style="font-family: Helvetica; font-size: 8px;fill: rgb(0%,0%,0%); stroke:none;" transform="translate(0,-16) scale(1,-1)">144</text>
						</g>
						<g transform=" matrix(1,0,0,1,616.512605,546)">
							<text x="-6.672" y="-8.0" style="font-family: Helvetica; font-size: 8px;fill: rgb(0%,0%,0%); stroke:none;" transform="translate(0,-16) scale(1,-1)">168</text>
						</g>
						<g transform=" matrix(1,0,0,1,797.016807,546)">
							<text x="-6.672" y="-8.0" style="font-family: Helvetica; font-size: 8px;fill: rgb(0%,0%,0%); stroke:none;" transform="translate(0,-16) scale(1,-1)">192</text>
						</g>
						<g transform=" matrix(1,0,0,1,970,546)">
							<text x="-6.672" y="-8.0" style="font-family: Helvetica; font-size: 8px;fill: rgb(0%,0%,0%); stroke:none;" transform="translate(0,-16) scale(1,-1)">215</text>
						</g>
					</g>
				</g>
				<g transform="">
					<g transform="">
						<path d="M 75,551 L 75,717 Z" style="stroke: rgb(59%,65%,70%); stroke-linecap: butt; stroke-width: 1;"/>
					</g>
					<g transform="">
						<path d="M 75,551 L 70,551 Z" style="stroke: rgb(59%,65%,70%); stroke-linecap: butt; stroke-width: 1;"/>
						<path d="M 75,597.607014 L 70,597.607014 Z" style="stroke: rgb(59%,65%,70%); stroke-linecap: butt; stroke-width: 1;"/>
						<path d="M 75,644.214027 L 70,644.214027 Z" style="stroke: rgb(59%,65%,70%); stroke-linecap: butt; stroke-width: 1;"/>
						<path d="M 75,690.821041 L 70,690.821041 Z" style="stroke: rgb(59%,65%,70%); stroke-linecap: butt; stroke-width: 1;"/>
					</g>
					<g transform="">
						<g transform=" matrix(1,0,0,1,70,551)">
							<text x="-20.016000000000002" y="-3.2" style="font-family: Helvetica; font-size: 8px;fill: rgb(0%,0%,0%); stroke:none;" transform="translate(0,-6) scale(1,-1)">0.000</text>
						</g>
						<g transform=" matrix(1,0,0,1,70,597.607014)">
							<text x="-20.016000000000002" y="-3.2" style="font-family: Helvetica; font-size: 8px;fill: rgb(0%,0%,0%); stroke:none;" transform="translate(0,-6) scale(1,-1)">0.100</text>
						</g>
						<g transform=" matrix(1,0,0,1,70,644.214027)">
							<text x="-20.016000000000002" y="-3.2" style="font-family: Helvetica; font-size: 8px;fill: rgb(0%,0%,0%); stroke:none;" transform="translate(0,-6) scale(1,-1)">0.200</text>
						</g>
						<g transform=" matrix(1,0,0,1,70,690.821041)">
							<text x="-20.016000000000002" y="-3.2" style="font-family: Helvetica; font-size: 8px;fill: rgb(0%,0%,0%); stroke:none;" transform="translate(0,-6) scale(1,-1)">0.300</text>
						</g>
					</g>
				</g>
				<path d="M 75,597.607014 L 970,597.607014 Z" style="stroke: rgb(89%,90%,92%); stroke-linecap: butt; stroke-width: 0.25;"/>
				<path d="M 75,644.214027 L 970,644.214027 Z" style="stroke: rgb(89%,90%,92%); stroke-linecap: butt; stroke-width: 0.25;"/>
				<path d="M 75,690.821041 L 970,690.821041 Z" style="stroke: rgb(89%,90%,92%); stroke-linecap: butt; stroke-width: 0.25;"/>
				<g transform="">
					<polyline points="75 551, 82.52101 551, 90.04202 551, 97.56303 551, 105.084 551, 112.605 551, 120.1261 551, 127.6471 551, 135.1681 551, 142.6891 551, 150.2101 551, 157.7311 551, 165.2521 551, 172.7731 551, 180.2941 551, 187.8151 551, 195.3361 552.1909, 202.8571 552.5157, 210.3782 553.49, 217.8992 553.49, 225.4202 551.8661, 232.9412 551, 240.4622 551, 247.9832 551, 255.5042 551, 263.0252 551, 270.5462 551, 278.0672 551, 285.5882 551, 293.1092 551, 300.6303 551.433, 308.1513 554.3561, 315.6723 557.2792, 323.1933 551, 330.7143 551, 338.2353 554.8975, 345.7563 556.1966, 353.2773 555.6553, 360.7983 555.6553, 368.3193 551.9744, 375.8403 551.9744, 383.3613 551.9744, 390.8824 591.2737, 398.4034 614.7666, 405.9244 700.5105, 413.4454 704.2997, 420.9664 706.1402, 428.4874 666.1913, 436.0084 665.9748, 443.5294 665.9748, 451.0504 653.7411, 458.5714 653.8494, 466.0924 653.8494, 473.6134 653.8494, 481.1345 654.0659, 488.6555 654.1742, 496.1765 654.3907, 503.6975 654.6072, 511.2185 634.7952, 518.7395 656.7725, 526.2605 680.1572, 533.7815 635.12, 541.3025 612.8179, 548.8235 598.9603, 556.3445 601.9916, 563.8655 602.8577, 571.3866 595.7124, 578.9076 591.815, 586.4286 584.9944, 593.9496 585.211, 601.4706 585.211, 608.9916 585.211, 616.5126 585.211, 624.0336 571.1368, 631.5546 571.2451, 639.0756 571.1368, 646.5966 576.55, 654.1176 576.55, 661.6387 576.7665, 669.1597 583.154, 676.6807 579.7978, 684.2017 580.0144, 691.7227 565.832, 699.2437 562.5841, 706.7647 557.8205, 714.2857 557.171, 721.8067 554.8975, 729.3277 552.8405, 736.8487 552.5157, 744.3697 551.8661, 751.8908 551.433, 759.4118 551, 766.9328 551.1083, 774.4538 551.1083, 781.9748 551, 789.4958 551, 797.0168 551, 804.5378 551, 812.0588 551, 819.5798 551, 827.1008 551, 834.6218 551, 842.1429 551.1083, 849.6639 551.2165, 857.1849 551.2165, 864.7059 551.3248, 872.2269 551.433, 879.7479 551.2165, 887.2689 551.1083, 894.7899 551.1083, 902.3109 551.1083, 909.8319 551.1083, 917.3529 551.1083, 924.8739 551.2165, 932.395 551.1083, 939.916 551.1083, 947.437 551.1083, 954.958 551.1083, 962.479 551.1083, 970 551.1083" style="stroke: rgb(8%,17%,25%); stroke-linecap: round; stroke-width: 1.7; fill: None; fill-rule: evenodd;"/>
					<polyline points="75 578.0547, 82.52101 567.8186, 90.04202 567.7028, 97.56303 564.5917, 105.084 564.5257, 112.605 573.09, 120.1261 559.2229, 127.6471 572.2106, 135.1681 584.2605, 142.6891 579.0894, 150.2101 576.4246, 157.7311 573.0187, 165.2521 577.1413, 172.7731 574.8084, 180.2941 577.2344, 187.8151 575.1738, 195.3361 579.2657, 202.8571 580.3004, 210.3782 579.6491, 217.8992 580.4358, 225.4202 584.3023, 232.9412 582.9172, 240.4622 581.9477, 247.9832 570.2918, 255.5042 566.8677, 263.0252 573.7142, 270.5462 567.8194, 278.0672 573.6202, 285.5882 569.0897, 293.1092 577.7695, 300.6303 576.6942, 308.1513 570.6397, 315.6723 578.7736, 323.1933 577.3505, 330.7143 574.1431, 338.2353 590.3846, 345.7563 590.1425, 353.2773 590.3908, 360.7983 591.2611, 368.3193 590.8869, 375.8403 590.1883, 383.3613 595.2343, 390.8824 593.8639, 398.4034 600.8591, 405.9244 617.8531, 413.4454 616.0797, 420.9664 618.6414, 428.4874 617.5824, 436.0084 623.9501, 443.5294 623.691, 451.0504 625.4166, 458.5714 618.7127, 466.0924 619.7279, 473.6134 624.4218, 481.1345 620.2928, 488.6555 614.3496, 496.1765 610.9697, 503.6975 612.4005, 511.2185 612.6927, 518.7395 614.9514, 526.2605 612.5414, 533.7815 609.7579, 541.3025 606.3327, 548.8235 603.0785, 556.3445 603.2295, 563.8655 603.0345, 571.3866 596.0345, 578.9076 593.2336, 586.4286 584.3519, 593.9496 580.996, 601.4706 577.1053, 608.9916 577.006, 616.5126 575.354, 624.0336 570.9855, 631.5546 574.6111, 639.0756 570.4887, 646.5966 577.2436, 654.1176 572.8025, 661.6387 573.82, 669.1597 575.8845, 676.6807 571.6129, 684.2017 571.8957, 691.7227 570.1775, 699.2437 567.5243, 706.7647 572.7114, 714.2857 572.5067, 721.8067 573.1212, 729.3277 572.3792, 736.8487 571.9527, 744.3697 571.1109, 751.8908 572.8348, 759.4118 571.3805, 766.9328 569.6183, 774.4538 566.3595, 781.9748 566.3652, 789.4958 566.4477, 797.0168 560.2523, 804.5378 574.0033, 812.0588 574.1293, 819.5798 574.4644, 827.1008 574.1398, 834.6218 560.2456, 842.1429 570.9543, 849.6639 570.9543, 857.1849 563.4907, 864.7059 562.012, 872.2269 559.7004, 879.7479 559.9706, 887.2689 559.8987, 894.7899 559.6251, 902.3109 572.1156, 909.8319 572.9325, 917.3529 562.4068, 924.8739 562.4068, 932.395 565.0261, 939.916 565.3641, 947.437 566.2003, 954.958 565.229, 962.479 565.3104, 970 563.1362" style="stroke: rgb(82%,45%,9%); stroke-linecap: round; stroke-width: 1.7; fill: None; fill-rule: evenodd; stroke-dasharray: 4, 2;"/>
					<polyline points="75 551, 82.52101 551, 90.04202 551, 97.56303 551, 105.084 551, 112.605 551, 120.1261 551, 127.6471 551, 135.1681 551, 142.6891 551, 150.2101 551, 157.7311 551, 165.2521 551, 172.7731 551, 180.2941 551, 187.8151 551, 195.3361 551.1985, 202.8571 551.4511, 210.3782 551.8661, 217.8992 552.2811, 225.4202 552.4255, 232.9412 552.4255, 240.4622 552.227, 247.9832 551.9744, 255.5042 551.5594, 263.0252 551.1443, 270.5462 551, 278.0672 551, 285.5882 551, 293.1092 551, 300.6303 551.0722, 308.1513 551.6315, 315.6723 552.6781, 323.1933 552.6781, 330.7143 552.6781, 338.2353 553.3276, 345.7563 554.1216, 353.2773 554.3381, 360.7983 554.0674, 368.3193 554.2298, 375.8403 554.3922, 383.3613 553.905, 390.8824 559.7512, 398.4034 569.6031, 405.9244 593.7457, 413.4454 619.1332, 420.9664 644.8275, 428.4874 663.8637, 436.0084 676.3139, 443.5294 684.8486, 451.0504 677.0537, 458.5714 668.6453, 466.0924 659.9301, 473.6134 657.8731, 481.1345 655.8883, 488.6555 653.9216, 496.1765 654.0298, 503.6975 654.1561, 511.2185 650.9804, 518.7395 651.4676, 526.2605 655.8162, 533.7815 652.6405, 541.3025 645.7117, 548.8235 636.4372, 556.3445 630.9699, 563.8655 621.9841, 571.3866 607.91, 578.9076 600.6925, 586.4286 596.0553, 593.9496 593.7637, 601.4706 590.9669, 608.9916 588.0258, 616.5126 586.2755, 624.0336 582.8292, 631.5546 580.5376, 639.0756 578.1919, 646.5966 576.7484, 654.1176 575.3049, 661.6387 573.8975, 669.1597 575.9004, 676.6807 577.3258, 684.2017 578.8054, 691.7227 577.0191, 699.2437 574.6914, 706.7647 571.5338, 714.2857 567.2033, 721.8067 563.0532, 729.3277 558.5242, 736.8487 556.3049, 744.3697 554.5185, 751.8908 553.454, 759.4118 552.4255, 766.9328 551.7939, 774.4538 551.5052, 781.9748 551.2526, 789.4958 551.1083, 797.0168 551.0361, 804.5378 551.0361, 812.0588 551.018, 819.5798 551, 827.1008 551, 834.6218 551, 842.1429 551.018, 849.6639 551.0541, 857.1849 551.0902, 864.7059 551.1443, 872.2269 551.2165, 879.7479 551.2526, 887.2689 551.2526, 894.7899 551.2346, 902.3109 551.2165, 909.8319 551.1804, 917.3529 551.1263, 924.8739 551.1263, 932.395 551.1263, 939.916 551.1263, 947.437 551.1263, 954.958 551.1263, 962.479 551.1263, 970 551.1083" style="stroke: rgb(21%,47%,74%); stroke-linecap: round; stroke-width: 1.7; fill: None; fill-rule: evenodd;"/>
					<polyline points="75 562.4283, 82.52101 561.3914, 90.04202 560.0994, 97.56303 559.6351, 105.084 560.0856, 112.605 562.6261, 120.1261 556.1063, 127.6471 564.1295, 135.1681 568.8757, 142.6891 568.3543, 150.2101 567.672, 157.7311 564.5592, 165.2521 565.9939, 172.7731 565.8891, 180.2941 570.5429, 187.8151 569.0927, 195.3361 570.5723, 202.8571 570.4993, 210.3782 570.2145, 217.8992 572.2893, 225.4202 572.3687, 232.9412 574.0091, 240.4622 572.2391, 247.9832 569.2917, 255.5042 567.8821, 263.0252 570.4245, 270.5462 569.7959, 278.0672 570.6809, 285.5882 568.0731, 293.1092 572.7197, 300.6303 574.2525, 308.1513 569.4425, 315.6723 573.1328, 323.1933 575.3947, 330.7143 574.4002, 338.2353 578.6364, 345.7563 583.232, 353.2773 586.0024, 360.7983 589.9792, 368.3193 590.4175, 375.8403 598.6683, 383.3613 598.6683, 390.8824 599.4322, 398.4034 599.5188, 405.9244 603.7497, 413.4454 601.4614, 420.9664 603.9132, 428.4874 606.2403, 436.0084 622.9352, 443.5294 622.8033, 451.0504 621.69, 458.5714 619.2284, 466.0924 619.1663, 473.6134 622.0719, 481.1345 615.8888, 488.6555 616.6297, 496.1765 610.5736, 503.6975 610.9942, 511.2185 612.9187, 518.7395 613.2461, 526.2605 610.879, 533.7815 610.879, 541.3025 608.7549, 548.8235 607.9217, 556.3445 607.9217, 563.8655 606.0014, 571.3866 597.3406, 578.9076 598.1425, 586.4286 588.8538, 593.9496 585.8186, 601.4706 583.8354, 608.9916 581.5815, 616.5126 581.3052, 624.0336 574.8934, 631.5546 578.514, 639.0756 573.926, 646.5966 575.2673, 654.1176 571.8274, 661.6387 575.2673, 669.1597 575.2673, 676.6807 573.926, 684.2017 573.926, 691.7227 573.6526, 699.2437 570.0301, 706.7647 573.6526, 714.2857 573.7183, 721.8067 568.2053, 729.3277 567.6863, 736.8487 564.8192, 744.3697 563.8064, 751.8908 568.0148, 759.4118 566.8872, 766.9328 563.6541, 774.4538 563.1113, 781.9748 563.1113, 789.4958 563.1133, 797.0168 562.2106, 804.5378 568.6326, 812.0588 568.6307, 819.5798 568.6307, 827.1008 568.6307, 834.6218 562.2086, 842.1429 567.2894, 849.6639 567.2894, 857.1849 560.3027, 864.7059 557.5875, 872.2269 555.9633, 879.7479 559.2092, 887.2689 559.0707, 894.7899 559.0745, 902.3109 565.4965, 909.8319 565.4965, 917.3529 558.2733, 924.8739 558.2733, 932.395 564.2768, 939.916 561.044, 947.437 561.044, 954.958 561.044, 962.479 561.044, 970 560.1867" style="stroke: rgb(69%,29%,56%); stroke-linecap: round; stroke-width: 1.7; fill: None; fill-rule: evenodd; stroke-dasharray: 4, 2;"/>
				</g>
			</g>
			<text x="75" y="749" style="font-family: Helvetica-Bold; font-size: 12px;fill: rgb(8%,17%,25%); stroke:none;" transform="translate(0,1498) scale(1,-1)">P and D: level and persistence</text>
			<path d="M 75,733 L 95,733 Z" style="stroke: rgb(8%,17%,25%); stroke-linecap: butt; stroke-width: 2;"/>
			<text x="101" y="730" style="font-family: Helvetica; font-size: 9px;fill: rgb(20%,25%,33%); stroke:none;" transform="translate(0,1460) scale(1,-1)">Official P</text>
			<path d="M 285,733 L 305,733 Z" style="stroke: rgb(82%,45%,9%); stroke-linecap: butt; stroke-width: 2;"/>
			<text x="311" y="730" style="font-family: Helvetica; font-size: 9px;fill: rgb(20%,25%,33%); stroke:none;" transform="translate(0,1460) scale(1,-1)">Tree P</text>
			<path d="M 495,733 L 515,733 Z" style="stroke: rgb(21%,47%,74%); stroke-linecap: butt; stroke-width: 2;"/>
			<text x="521" y="730" style="font-family: Helvetica; font-size: 9px;fill: rgb(20%,25%,33%); stroke:none;" transform="translate(0,1460) scale(1,-1)">Official D</text>
			<path d="M 705,733 L 725,733 Z" style="stroke: rgb(69%,29%,56%); stroke-linecap: butt; stroke-width: 2;"/>
			<text x="731" y="730" style="font-family: Helvetica; font-size: 9px;fill: rgb(20%,25%,33%); stroke:none;" transform="translate(0,1460) scale(1,-1)">Tree D</text>
			<g transform="">
				<g transform="">
					<g transform="">
						<path d="M 75,307 L 970,307 Z" style="stroke: rgb(59%,65%,70%); stroke-linecap: butt; stroke-width: 1;"/>
					</g>
					<g transform="">
						<path d="M 75,307 L 75,302 Z" style="stroke: rgb(59%,65%,70%); stroke-linecap: butt; stroke-width: 1;"/>
						<path d="M 255.504202,307 L 255.504202,302 Z" style="stroke: rgb(59%,65%,70%); stroke-linecap: butt; stroke-width: 1;"/>
						<path d="M 436.008403,307 L 436.008403,302 Z" style="stroke: rgb(59%,65%,70%); stroke-linecap: butt; stroke-width: 1;"/>
						<path d="M 616.512605,307 L 616.512605,302 Z" style="stroke: rgb(59%,65%,70%); stroke-linecap: butt; stroke-width: 1;"/>
						<path d="M 797.016807,307 L 797.016807,302 Z" style="stroke: rgb(59%,65%,70%); stroke-linecap: butt; stroke-width: 1;"/>
						<path d="M 970,307 L 970,302 Z" style="stroke: rgb(59%,65%,70%); stroke-linecap: butt; stroke-width: 1;"/>
					</g>
					<g transform="">
						<g transform=" matrix(1,0,0,1,75,302)">
							<text x="-4.448" y="-8.0" style="font-family: Helvetica; font-size: 8px;fill: rgb(0%,0%,0%); stroke:none;" transform="translate(0,-16) scale(1,-1)">96</text>
						</g>
						<g transform=" matrix(1,0,0,1,255.504202,302)">
							<text x="-6.672" y="-8.0" style="font-family: Helvetica; font-size: 8px;fill: rgb(0%,0%,0%); stroke:none;" transform="translate(0,-16) scale(1,-1)">120</text>
						</g>
						<g transform=" matrix(1,0,0,1,436.008403,302)">
							<text x="-6.672" y="-8.0" style="font-family: Helvetica; font-size: 8px;fill: rgb(0%,0%,0%); stroke:none;" transform="translate(0,-16) scale(1,-1)">144</text>
						</g>
						<g transform=" matrix(1,0,0,1,616.512605,302)">
							<text x="-6.672" y="-8.0" style="font-family: Helvetica; font-size: 8px;fill: rgb(0%,0%,0%); stroke:none;" transform="translate(0,-16) scale(1,-1)">168</text>
						</g>
						<g transform=" matrix(1,0,0,1,797.016807,302)">
							<text x="-6.672" y="-8.0" style="font-family: Helvetica; font-size: 8px;fill: rgb(0%,0%,0%); stroke:none;" transform="translate(0,-16) scale(1,-1)">192</text>
						</g>
						<g transform=" matrix(1,0,0,1,970,302)">
							<text x="-6.672" y="-8.0" style="font-family: Helvetica; font-size: 8px;fill: rgb(0%,0%,0%); stroke:none;" transform="translate(0,-16) scale(1,-1)">215</text>
						</g>
					</g>
				</g>
				<g transform="">
					<g transform="">
						<path d="M 75,307 L 75,473 Z" style="stroke: rgb(59%,65%,70%); stroke-linecap: butt; stroke-width: 1;"/>
					</g>
					<g transform="">
						<path d="M 75,307 L 70,307 Z" style="stroke: rgb(59%,65%,70%); stroke-linecap: butt; stroke-width: 1;"/>
						<path d="M 75,336.207515 L 70,336.207515 Z" style="stroke: rgb(59%,65%,70%); stroke-linecap: butt; stroke-width: 1;"/>
						<path d="M 75,365.41503 L 70,365.41503 Z" style="stroke: rgb(59%,65%,70%); stroke-linecap: butt; stroke-width: 1;"/>
						<path d="M 75,394.622545 L 70,394.622545 Z" style="stroke: rgb(59%,65%,70%); stroke-linecap: butt; stroke-width: 1;"/>
						<path d="M 75,423.830059 L 70,423.830059 Z" style="stroke: rgb(59%,65%,70%); stroke-linecap: butt; stroke-width: 1;"/>
						<path d="M 75,453.037574 L 70,453.037574 Z" style="stroke: rgb(59%,65%,70%); stroke-linecap: butt; stroke-width: 1;"/>
					</g>
					<g transform="">
						<g transform=" matrix(1,0,0,1,70,307)">
							<text x="-20.016000000000002" y="-3.2" style="font-family: Helvetica; font-size: 8px;fill: rgb(0%,0%,0%); stroke:none;" transform="translate(0,-6) scale(1,-1)">0.000</text>
						</g>
						<g transform=" matrix(1,0,0,1,70,336.207515)">
							<text x="-20.016000000000002" y="-3.2" style="font-family: Helvetica; font-size: 8px;fill: rgb(0%,0%,0%); stroke:none;" transform="translate(0,-6) scale(1,-1)">0.020</text>
						</g>
						<g transform=" matrix(1,0,0,1,70,365.41503)">
							<text x="-20.016000000000002" y="-3.2" style="font-family: Helvetica; font-size: 8px;fill: rgb(0%,0%,0%); stroke:none;" transform="translate(0,-6) scale(1,-1)">0.040</text>
						</g>
						<g transform=" matrix(1,0,0,1,70,394.622545)">
							<text x="-20.016000000000002" y="-3.2" style="font-family: Helvetica; font-size: 8px;fill: rgb(0%,0%,0%); stroke:none;" transform="translate(0,-6) scale(1,-1)">0.060</text>
						</g>
						<g transform=" matrix(1,0,0,1,70,423.830059)">
							<text x="-20.016000000000002" y="-3.2" style="font-family: Helvetica; font-size: 8px;fill: rgb(0%,0%,0%); stroke:none;" transform="translate(0,-6) scale(1,-1)">0.080</text>
						</g>
						<g transform=" matrix(1,0,0,1,70,453.037574)">
							<text x="-20.016000000000002" y="-3.2" style="font-family: Helvetica; font-size: 8px;fill: rgb(0%,0%,0%); stroke:none;" transform="translate(0,-6) scale(1,-1)">0.100</text>
						</g>
					</g>
				</g>
				<path d="M 75,336.207515 L 970,336.207515 Z" style="stroke: rgb(89%,90%,92%); stroke-linecap: butt; stroke-width: 0.25;"/>
				<path d="M 75,365.41503 L 970,365.41503 Z" style="stroke: rgb(89%,90%,92%); stroke-linecap: butt; stroke-width: 0.25;"/>
				<path d="M 75,394.622545 L 970,394.622545 Z" style="stroke: rgb(89%,90%,92%); stroke-linecap: butt; stroke-width: 0.25;"/>
				<path d="M 75,423.830059 L 970,423.830059 Z" style="stroke: rgb(89%,90%,92%); stroke-linecap: butt; stroke-width: 0.25;"/>
				<path d="M 75,453.037574 L 970,453.037574 Z" style="stroke: rgb(89%,90%,92%); stroke-linecap: butt; stroke-width: 0.25;"/>
				<g transform="">
					<polyline points="75 307, 82.52101 307, 90.04202 307, 97.56303 307, 105.084 307, 112.605 307, 120.1261 307, 127.6471 307, 135.1681 307, 142.6891 307, 150.2101 307, 157.7311 307, 165.2521 307, 172.7731 307, 180.2941 307, 187.8151 308.2438, 195.3361 308.5831, 202.8571 309.6007, 210.3782 308.3569, 217.8992 308.0177, 225.4202 307, 232.9412 307, 240.4622 307, 247.9832 307, 255.5042 307, 263.0252 307, 270.5462 307, 278.0672 307, 285.5882 307, 293.1092 307.4523, 300.6303 310.5054, 308.1513 313.5584, 315.6723 313.1061, 323.1933 310.053, 330.7143 311.0707, 338.2353 312.4276, 345.7563 312.4276, 353.2773 308.3569, 360.7983 307, 368.3193 307, 375.8403 307, 383.3613 348.0466, 390.8824 372.584, 398.4034 462.1402, 405.9244 425.0513, 413.4454 402.4361, 420.9664 312.8799, 428.4874 308.9223, 436.0084 307, 443.5294 307, 451.0504 307.113, 458.5714 307.113, 466.0924 307.113, 473.6134 307.2262, 481.1345 307.3392, 488.6555 307.5654, 496.1765 307.5654, 503.6975 307.4523, 511.2185 330.1806, 518.7395 354.3788, 526.2605 354.3788, 533.7815 331.4244, 541.3025 307, 548.8235 310.1661, 556.3445 311.0707, 563.8655 311.0707, 571.3866 307.9046, 578.9076 307, 586.4286 307.2262, 593.9496 307.2262, 601.4706 307.2262, 608.9916 307, 616.5126 307, 624.0336 307.113, 631.5546 307.113, 639.0756 312.7669, 646.5966 312.6538, 654.1176 312.8799, 661.6387 313.8976, 669.1597 313.8976, 676.6807 313.8976, 684.2017 307.2262, 691.7227 307.2262, 699.2437 307, 706.7647 307, 714.2857 307, 721.8067 307, 729.3277 307, 736.8487 307, 744.3697 307, 751.8908 307, 759.4118 307.113, 766.9328 307.113, 774.4538 307.113, 781.9748 307, 789.4958 307, 797.0168 307, 804.5378 307, 812.0588 307, 819.5798 307, 827.1008 307, 834.6218 307.113, 842.1429 307.2262, 849.6639 307.2262, 857.1849 307.2262, 864.7059 307.2262, 872.2269 307.2262, 879.7479 307.113, 887.2689 307, 894.7899 307, 902.3109 307, 909.8319 307, 917.3529 307.113, 924.8739 307.113, 932.395 307.113, 939.916 307, 947.437 307, 954.958 307, 962.479 307, 970 307" style="stroke: rgb(8%,17%,25%); stroke-linecap: round; stroke-width: 1.7; fill: None; fill-rule: evenodd;"/>
					<polyline points="75 310.6836, 82.52101 309.756, 90.04202 309.8596, 97.56303 309.8968, 105.084 309.761, 112.605 309.4485, 120.1261 309.2771, 127.6471 309.101, 135.1681 309.5036, 142.6891 309.616, 150.2101 310.1092, 157.7311 309.9216, 165.2521 310.6759, 172.7731 310.3416, 180.2941 310.9185, 187.8151 311.2617, 195.3361 313.3329, 202.8571 312.0018, 210.3782 310.6305, 217.8992 309.319, 225.4202 310.2471, 232.9412 310.5862, 240.4622 310.4913, 247.9832 309.4474, 255.5042 308.8674, 263.0252 308.9559, 270.5462 310.7879, 278.0672 312.2594, 285.5882 311.6105, 293.1092 311.7601, 300.6303 314.3747, 308.1513 317.9484, 315.6723 315.3585, 323.1933 315.5642, 330.7143 319.6654, 338.2353 317.7165, 345.7563 314.5852, 353.2773 314.4736, 360.7983 314.8282, 368.3193 314.3532, 375.8403 314.0417, 383.3613 317.4638, 390.8824 317.3137, 398.4034 328.2624, 405.9244 329.9603, 413.4454 325.2045, 420.9664 321.3306, 428.4874 322.5032, 436.0084 315.9157, 443.5294 316.7514, 451.0504 315.6623, 458.5714 315.544, 466.0924 315.4495, 473.6134 318.0837, 481.1345 321.1817, 488.6555 319.2658, 496.1765 320.6613, 503.6975 317.1593, 511.2185 315.3578, 518.7395 313.3191, 526.2605 312.7625, 533.7815 312.5684, 541.3025 311.6069, 548.8235 312.0054, 556.3445 312.3235, 563.8655 311.4349, 571.3866 310.2705, 578.9076 311.223, 586.4286 312.152, 593.9496 310.6804, 601.4706 310.9244, 608.9916 309.9376, 616.5126 309.9125, 624.0336 309.8143, 631.5546 310.5105, 639.0756 309.815, 646.5966 309.9603, 654.1176 309.8365, 661.6387 310.0149, 669.1597 309.9398, 676.6807 310.4318, 684.2017 309.81, 691.7227 310.8022, 699.2437 310.2718, 706.7647 309.6337, 714.2857 309.6688, 721.8067 309.6734, 729.3277 309.7359, 736.8487 309.7637, 744.3697 309.7462, 751.8908 311.9423, 759.4118 309.857, 766.9328 309.8593, 774.4538 309.8076, 781.9748 309.8031, 789.4958 309.8975, 797.0168 309.8856, 804.5378 309.9769, 812.0588 309.9769, 819.5798 309.9787, 827.1008 310.3424, 834.6218 310.2511, 842.1429 309.9103, 849.6639 309.8076, 857.1849 309.7136, 864.7059 309.7979, 872.2269 310.1006, 879.7479 309.7596, 887.2689 309.827, 894.7899 309.9201, 902.3109 309.7285, 909.8319 310.0576, 917.3529 310.1537, 924.8739 311.0576, 932.395 309.9062, 939.916 310.0712, 947.437 309.8625, 954.958 309.9002, 962.479 309.9002, 970 309.7792" style="stroke: rgb(82%,45%,9%); stroke-linecap: round; stroke-width: 1.7; fill: None; fill-rule: evenodd; stroke-dasharray: 4, 2;"/>
					<polyline points="75 307, 82.52101 307, 90.04202 307, 97.56303 307, 105.084 307, 112.605 307, 120.1261 307, 127.6471 307, 135.1681 307, 142.6891 307, 150.2101 307, 157.7311 307, 165.2521 307, 172.7731 307, 180.2941 307, 187.8151 307, 195.3361 307, 202.8571 307, 210.3782 307, 217.8992 308.6961, 225.4202 309.6007, 232.9412 309.6007, 240.4622 307.9046, 247.9832 307, 255.5042 307, 263.0252 307, 270.5462 307, 278.0672 307, 285.5882 307, 293.1092 307, 300.6303 307, 308.1513 307, 315.6723 313.5584, 323.1933 313.5584, 330.7143 313.5584, 338.2353 307, 345.7563 307.5654, 353.2773 307.5654, 360.7983 311.41, 368.3193 310.8446, 375.8403 310.8446, 383.3613 307, 390.8824 307, 398.4034 307, 405.9244 307, 413.4454 307, 420.9664 348.725, 428.4874 348.9512, 436.0084 348.9512, 443.5294 320.0037, 451.0504 319.7776, 458.5714 319.7776, 466.0924 307, 473.6134 307, 481.1345 307, 488.6555 307, 496.1765 307, 503.6975 327.6929, 511.2185 327.6929, 518.7395 327.6929, 526.2605 354.0396, 533.7815 377.3332, 541.3025 391.807, 548.8235 344.7674, 556.3445 321.4737, 563.8655 314.463, 571.3866 318.5337, 578.9076 325.6575, 586.4286 318.1945, 593.9496 314.1238, 601.4706 307, 608.9916 307, 616.5126 321.6999, 624.0336 321.6999, 631.5546 321.8129, 639.0756 307.113, 646.5966 307.113, 654.1176 307, 661.6387 307, 669.1597 310.5054, 676.6807 310.5054, 684.2017 325.3183, 691.7227 325.2052, 699.2437 330.1806, 706.7647 316.0461, 714.2857 315.0284, 721.8067 312.2015, 729.3277 311.8623, 736.8487 310.1661, 744.3697 308.47, 751.8908 308.5831, 759.4118 307.9046, 766.9328 307.4523, 774.4538 307.113, 781.9748 307.113, 789.4958 307.113, 797.0168 307, 804.5378 307, 812.0588 307, 819.5798 307, 827.1008 307, 834.6218 307, 842.1429 307, 849.6639 307, 857.1849 307, 864.7059 307, 872.2269 307.2262, 879.7479 307.3392, 887.2689 307.3392, 894.7899 307.113, 902.3109 307, 909.8319 307, 917.3529 307, 924.8739 307.113, 932.395 307.113, 939.916 307.113, 947.437 307, 954.958 307, 962.479 307, 970 307" style="stroke: rgb(21%,47%,74%); stroke-linecap: round; stroke-width: 1.7; fill: None; fill-rule: evenodd;"/>
					<polyline points="75 307.6228, 82.52101 307.6207, 90.04202 308.0512, 97.56303 307.859, 105.084 307.9093, 112.605 307.8712, 120.1261 308.1011, 127.6471 308.6523, 135.1681 308.2504, 142.6891 311.2245, 150.2101 309.3753, 157.7311 308.7154, 165.2521 308.8163, 172.7731 309.5676, 180.2941 309.3819, 187.8151 308.3203, 195.3361 309.8385, 202.8571 310.9571, 210.3782 310.8365, 217.8992 310.4894, 225.4202 310.5208, 232.9412 310.5398, 240.4622 310.4372, 247.9832 311.7785, 255.5042 309.5751, 263.0252 309.3244, 270.5462 309.4062, 278.0672 309.7942, 285.5882 309.9232, 293.1092 310.5776, 300.6303 310.7475, 308.1513 311.9255, 315.6723 320.9262, 323.1933 319.4934, 330.7143 321.5101, 338.2353 313.9136, 345.7563 312.2082, 353.2773 313.8013, 360.7983 313.3642, 368.3193 313.7388, 375.8403 313.73, 383.3613 313.7886, 390.8824 312.5664, 398.4034 311.8012, 405.9244 314.6052, 413.4454 312.9248, 420.9664 312.7522, 428.4874 314.567, 436.0084 317.5597, 443.5294 319.2289, 451.0504 319.7925, 458.5714 318.6582, 466.0924 315.9261, 473.6134 313.5704, 481.1345 313.6169, 488.6555 314.1265, 496.1765 314.3395, 503.6975 314.7249, 511.2185 317.4827, 518.7395 319.6144, 526.2605 321.6495, 533.7815 324.5301, 541.3025 327.5234, 548.8235 325.772, 556.3445 323.008, 563.8655 320.895, 571.3866 314.471, 578.9076 315.2368, 586.4286 310.6836, 593.9496 310.9526, 601.4706 309.895, 608.9916 309.1087, 616.5126 308.5417, 624.0336 309.5823, 631.5546 309.1589, 639.0756 309.1421, 646.5966 309.0267, 654.1176 307.8523, 661.6387 307.7897, 669.1597 307.8247, 676.6807 307.6952, 684.2017 307.9622, 691.7227 308.34, 699.2437 308.5627, 706.7647 308.4613, 714.2857 307.7868, 721.8067 307.7479, 729.3277 307.8833, 736.8487 307.8121, 744.3697 307.9522, 751.8908 309.0958, 759.4118 309.1028, 766.9328 308.981, 774.4538 308.8624, 781.9748 308.8541, 789.4958 308.7199, 797.0168 308.7985, 804.5378 308.7947, 812.0588 308.7947, 819.5798 308.4325, 827.1008 308.3293, 834.6218 308.3235, 842.1429 308.7594, 849.6639 308.7733, 857.1849 309.2964, 864.7059 308.0218, 872.2269 308.1854, 879.7479 308.0057, 887.2689 308.4803, 894.7899 308.4345, 902.3109 308.9845, 909.8319 308.6904, 917.3529 308.6695, 924.8739 309.1809, 932.395 308.6522, 939.916 308.0348, 947.437 308.0209, 954.958 308.0371, 962.479 308.0209, 970 308.028" style="stroke: rgb(69%,29%,56%); stroke-linecap: round; stroke-width: 1.7; fill: None; fill-rule: evenodd; stroke-dasharray: 4, 2;"/>
				</g>
			</g>
			<text x="75" y="505" style="font-family: Helvetica-Bold; font-size: 12px;fill: rgb(8%,17%,25%); stroke:none;" transform="translate(0,1010) scale(1,-1)">N and R: growth and recovery components</text>
			<path d="M 75,489 L 95,489 Z" style="stroke: rgb(8%,17%,25%); stroke-linecap: butt; stroke-width: 2;"/>
			<text x="101" y="486" style="font-family: Helvetica; font-size: 9px;fill: rgb(20%,25%,33%); stroke:none;" transform="translate(0,972) scale(1,-1)">Official N</text>
			<path d="M 285,489 L 305,489 Z" style="stroke: rgb(82%,45%,9%); stroke-linecap: butt; stroke-width: 2;"/>
			<text x="311" y="486" style="font-family: Helvetica; font-size: 9px;fill: rgb(20%,25%,33%); stroke:none;" transform="translate(0,972) scale(1,-1)">Tree N</text>
			<path d="M 495,489 L 515,489 Z" style="stroke: rgb(21%,47%,74%); stroke-linecap: butt; stroke-width: 2;"/>
			<text x="521" y="486" style="font-family: Helvetica; font-size: 9px;fill: rgb(20%,25%,33%); stroke:none;" transform="translate(0,972) scale(1,-1)">Official R</text>
			<path d="M 705,489 L 725,489 Z" style="stroke: rgb(69%,29%,56%); stroke-linecap: butt; stroke-width: 2;"/>
			<text x="731" y="486" style="font-family: Helvetica; font-size: 9px;fill: rgb(20%,25%,33%); stroke:none;" transform="translate(0,972) scale(1,-1)">Tree R</text>
			<g transform="">
				<g transform="">
					<g transform="">
						<path d="M 75,63 L 970,63 Z" style="stroke: rgb(59%,65%,70%); stroke-linecap: butt; stroke-width: 1;"/>
					</g>
					<g transform="">
						<path d="M 75,63 L 75,58 Z" style="stroke: rgb(59%,65%,70%); stroke-linecap: butt; stroke-width: 1;"/>
						<path d="M 255.504202,63 L 255.504202,58 Z" style="stroke: rgb(59%,65%,70%); stroke-linecap: butt; stroke-width: 1;"/>
						<path d="M 436.008403,63 L 436.008403,58 Z" style="stroke: rgb(59%,65%,70%); stroke-linecap: butt; stroke-width: 1;"/>
						<path d="M 616.512605,63 L 616.512605,58 Z" style="stroke: rgb(59%,65%,70%); stroke-linecap: butt; stroke-width: 1;"/>
						<path d="M 797.016807,63 L 797.016807,58 Z" style="stroke: rgb(59%,65%,70%); stroke-linecap: butt; stroke-width: 1;"/>
						<path d="M 970,63 L 970,58 Z" style="stroke: rgb(59%,65%,70%); stroke-linecap: butt; stroke-width: 1;"/>
					</g>
					<g transform="">
						<g transform=" matrix(1,0,0,1,75,58)">
							<text x="-4.448" y="-8.0" style="font-family: Helvetica; font-size: 8px;fill: rgb(0%,0%,0%); stroke:none;" transform="translate(0,-16) scale(1,-1)">96</text>
						</g>
						<g transform=" matrix(1,0,0,1,255.504202,58)">
							<text x="-6.672" y="-8.0" style="font-family: Helvetica; font-size: 8px;fill: rgb(0%,0%,0%); stroke:none;" transform="translate(0,-16) scale(1,-1)">120</text>
						</g>
						<g transform=" matrix(1,0,0,1,436.008403,58)">
							<text x="-6.672" y="-8.0" style="font-family: Helvetica; font-size: 8px;fill: rgb(0%,0%,0%); stroke:none;" transform="translate(0,-16) scale(1,-1)">144</text>
						</g>
						<g transform=" matrix(1,0,0,1,616.512605,58)">
							<text x="-6.672" y="-8.0" style="font-family: Helvetica; font-size: 8px;fill: rgb(0%,0%,0%); stroke:none;" transform="translate(0,-16) scale(1,-1)">168</text>
						</g>
						<g transform=" matrix(1,0,0,1,797.016807,58)">
							<text x="-6.672" y="-8.0" style="font-family: Helvetica; font-size: 8px;fill: rgb(0%,0%,0%); stroke:none;" transform="translate(0,-16) scale(1,-1)">192</text>
						</g>
						<g transform=" matrix(1,0,0,1,970,58)">
							<text x="-6.672" y="-8.0" style="font-family: Helvetica; font-size: 8px;fill: rgb(0%,0%,0%); stroke:none;" transform="translate(0,-16) scale(1,-1)">215</text>
						</g>
					</g>
				</g>
				<g transform="">
					<g transform="">
						<path d="M 75,63 L 75,229 Z" style="stroke: rgb(59%,65%,70%); stroke-linecap: butt; stroke-width: 1;"/>
					</g>
					<g transform="">
						<path d="M 75,63 L 70,63 Z" style="stroke: rgb(59%,65%,70%); stroke-linecap: butt; stroke-width: 1;"/>
						<path d="M 75,103.826365 L 70,103.826365 Z" style="stroke: rgb(59%,65%,70%); stroke-linecap: butt; stroke-width: 1;"/>
						<path d="M 75,144.65273 L 70,144.65273 Z" style="stroke: rgb(59%,65%,70%); stroke-linecap: butt; stroke-width: 1;"/>
						<path d="M 75,185.479095 L 70,185.479095 Z" style="stroke: rgb(59%,65%,70%); stroke-linecap: butt; stroke-width: 1;"/>
						<path d="M 75,226.30546 L 70,226.30546 Z" style="stroke: rgb(59%,65%,70%); stroke-linecap: butt; stroke-width: 1;"/>
					</g>
					<g transform="">
						<g transform=" matrix(1,0,0,1,70,63)">
							<text x="-11.120000000000001" y="-3.2" style="font-family: Helvetica; font-size: 8px;fill: rgb(0%,0%,0%); stroke:none;" transform="translate(0,-6) scale(1,-1)">0.0</text>
						</g>
						<g transform=" matrix(1,0,0,1,70,103.826365)">
							<text x="-15.568" y="-3.2" style="font-family: Helvetica; font-size: 8px;fill: rgb(0%,0%,0%); stroke:none;" transform="translate(0,-6) scale(1,-1)">10.0</text>
						</g>
						<g transform=" matrix(1,0,0,1,70,144.65273)">
							<text x="-15.568" y="-3.2" style="font-family: Helvetica; font-size: 8px;fill: rgb(0%,0%,0%); stroke:none;" transform="translate(0,-6) scale(1,-1)">20.0</text>
						</g>
						<g transform=" matrix(1,0,0,1,70,185.479095)">
							<text x="-15.568" y="-3.2" style="font-family: Helvetica; font-size: 8px;fill: rgb(0%,0%,0%); stroke:none;" transform="translate(0,-6) scale(1,-1)">30.0</text>
						</g>
						<g transform=" matrix(1,0,0,1,70,226.30546)">
							<text x="-15.568" y="-3.2" style="font-family: Helvetica; font-size: 8px;fill: rgb(0%,0%,0%); stroke:none;" transform="translate(0,-6) scale(1,-1)">40.0</text>
						</g>
					</g>
				</g>
				<path d="M 75,103.826365 L 970,103.826365 Z" style="stroke: rgb(89%,90%,92%); stroke-linecap: butt; stroke-width: 0.25;"/>
				<path d="M 75,144.65273 L 970,144.65273 Z" style="stroke: rgb(89%,90%,92%); stroke-linecap: butt; stroke-width: 0.25;"/>
				<path d="M 75,185.479095 L 970,185.479095 Z" style="stroke: rgb(89%,90%,92%); stroke-linecap: butt; stroke-width: 0.25;"/>
				<path d="M 75,226.30546 L 970,226.30546 Z" style="stroke: rgb(89%,90%,92%); stroke-linecap: butt; stroke-width: 0.25;"/>
				<g transform="">
					<polyline points="75 121.79, 82.52101 119.3404, 90.04202 118.1156, 97.56303 137.304, 105.084 136.4875, 112.605 139.7536, 120.1261 143.8362, 127.6471 151.1849, 135.1681 189.97, 142.6891 191.1948, 150.2101 186.2956, 157.7311 156.0841, 165.2521 178.1303, 172.7731 179.7634, 180.2941 192.0113, 187.8151 195.2774, 195.3361 203.4427, 202.8571 216.5071, 210.3782 204.6675, 217.8992 207.9336, 225.4202 211.608, 232.9412 181.3965, 240.4622 213.241, 247.9832 218.1402, 255.5042 216.9154, 263.0252 211.1997, 270.5462 181.3965, 278.0672 165.8824, 285.5882 167.9238, 293.1092 203.0344, 300.6303 163.8411, 308.1513 173.2312, 315.6723 130.3635, 323.1933 152.4097, 330.7143 170.3733, 338.2353 191.1948, 345.7563 180.9882, 353.2773 165.4742, 360.7983 157.7172, 368.3193 161.7998, 375.8403 159.3502, 383.3613 157.7172, 390.8824 186.7039, 398.4034 169.5568, 405.9244 148.7354, 413.4454 194.0526, 420.9664 194.8692, 428.4874 182.6212, 436.0084 197.3187, 443.5294 140.5701, 451.0504 145.8775, 458.5714 140.9784, 466.0924 168.7403, 473.6134 153.6345, 481.1345 143.8362, 488.6555 149.5519, 496.1765 161.7998, 503.6975 145.4693, 511.2185 144.6527, 518.7395 135.6709, 526.2605 153.6345, 533.7815 147.9188, 541.3025 160.575, 548.8235 147.9188, 556.3445 165.0659, 563.8655 147.5106, 571.3866 143.4279, 578.9076 139.3453, 586.4286 121.79, 593.9496 114.033, 601.4706 114.033, 608.9916 106.6842, 616.5126 89.12887, 624.0336 86.27103, 631.5546 90.76193, 639.0756 103.8264, 646.5966 97.29415, 654.1176 89.9454, 661.6387 90.35366, 669.1597 96.47762, 676.6807 107.909, 684.2017 97.70241, 691.7227 100.9685, 699.2437 111.1751, 706.7647 111.1751, 714.2857 120.9734, 721.8067 119.3404, 729.3277 118.5239, 736.8487 108.7255, 744.3697 109.1338, 751.8908 116.0743, 759.4118 92.80325, 766.9328 94.4363, 774.4538 96.06936, 781.9748 96.47762, 789.4958 95.66109, 797.0168 103.8264, 804.5378 108.7255, 812.0588 109.1338, 819.5798 106.6842, 827.1008 109.1338, 834.6218 103.4181, 842.1429 105.4594, 849.6639 106.2759, 857.1849 123.423, 864.7059 114.4412, 872.2269 109.9503, 879.7479 100.9685, 887.2689 114.4412, 894.7899 109.9503, 902.3109 106.6842, 909.8319 115.2577, 917.3529 105.0512, 924.8739 94.4363, 932.395 100.9685, 939.916 83.82145, 947.437 78.51402, 954.958 89.53714, 962.479 94.4363, 970 105.0512" style="stroke: rgb(8%,17%,25%); stroke-linecap: round; stroke-width: 1.7; fill: None; fill-rule: evenodd;"/>
				</g>
			</g>
			<text x="75" y="261" style="font-family: Helvetica-Bold; font-size: 12px;fill: rgb(8%,17%,25%); stroke:none;" transform="translate(0,522) scale(1,-1)">Allowed weather context</text>
			<path d="M 75,245 L 95,245 Z" style="stroke: rgb(8%,17%,25%); stroke-linecap: butt; stroke-width: 2;"/>
			<text x="101" y="242" style="font-family: Helvetica; font-size: 9px;fill: rgb(20%,25%,33%); stroke:none;" transform="translate(0,484) scale(1,-1)">Provided gust (mph)</text>
			<text x="355" y="19" style="font-family: Helvetica; font-size: 10px;fill: rgb(32%,40%,47%); stroke:none;" transform="translate(0,38) scale(1,-1)">Target hour: 72=Mar14, 96=Mar15, 120=Mar16, 168=Mar18</text>
		</g>
	</g>
</svg>
