<?xml version="1.0" encoding="utf-8"?>
<!DOCTYPE svg
  PUBLIC '-//W3C//DTD SVG 1.0//EN'
  'http://www.w3.org/TR/2001/REC-SVG-20010904/DTD/svg10.dtd'>
<svg width="1050" height="970" preserveAspectRatio="xMinYMin meet" viewBox="0 0 1050 970" xmlns="http://www.w3.org/2000/svg" version="1.0" fill-rule="evenodd" xmlns:xlink="http://www.w3.org/1999/xlink">
	<title>...</title>
	<desc>...</desc>
	<clipPath id="clip">
		<rect x="0" y="0" width="1050" height="970"/>
	</clipPath>
	<g id="group" transform="scale(1,-1) translate(0,-970)" style="clip-path: url(#clip)">
		<g transform="">
			<rect x="0" y="0" width="1050" height="970" style="stroke: none; stroke-linecap: butt; stroke-width: 1; fill: rgb(100%,100%,100%); fill-rule: evenodd;"/>
			<text x="72" y="939" style="font-family: Helvetica-Bold; font-size: 18px;fill: rgb(5%,9%,16%); stroke:none;" transform="translate(0,1878) scale(1,-1)">Morgan County, OH | split 42 | 48h</text>
			<text x="72" y="917" style="font-family: Helvetica; font-size: 11px;fill: rgb(27%,33%,41%); stroke:none;" transform="translate(0,1834) scale(1,-1)">Fixed F2 reference. Diagnostic curves; no model refitting.</text>
			<g transform="">
				<g transform="">
					<g transform="">
						<path d="M 72,705 L 972,705 Z" style="stroke: rgb(58%,63%,72%); stroke-linecap: butt; stroke-width: 1;"/>
					</g>
					<g transform="">
						<path d="M 72,705 L 72,700 Z" style="stroke: rgb(58%,63%,72%); stroke-linecap: butt; stroke-width: 1;"/>
						<path d="M 299.368421,705 L 299.368421,700 Z" style="stroke: rgb(58%,63%,72%); stroke-linecap: butt; stroke-width: 1;"/>
						<path d="M 526.736842,705 L 526.736842,700 Z" style="stroke: rgb(58%,63%,72%); stroke-linecap: butt; stroke-width: 1;"/>
						<path d="M 754.105263,705 L 754.105263,700 Z" style="stroke: rgb(58%,63%,72%); stroke-linecap: butt; stroke-width: 1;"/>
						<path d="M 972,705 L 972,700 Z" style="stroke: rgb(58%,63%,72%); stroke-linecap: butt; stroke-width: 1;"/>
					</g>
					<g transform="">
						<g transform=" matrix(1,0,0,1,72,700)">
							<text x="-6.672" y="-8.0" style="font-family: Helvetica; font-size: 8px;fill: rgb(0%,0%,0%); stroke:none;" transform="translate(0,-16) scale(1,-1)">120</text>
						</g>
						<g transform=" matrix(1,0,0,1,299.368421,700)">
							<text x="-6.672" y="-8.0" style="font-family: Helvetica; font-size: 8px;fill: rgb(0%,0%,0%); stroke:none;" transform="translate(0,-16) scale(1,-1)">144</text>
						</g>
						<g transform=" matrix(1,0,0,1,526.736842,700)">
							<text x="-6.672" y="-8.0" style="font-family: Helvetica; font-size: 8px;fill: rgb(0%,0%,0%); stroke:none;" transform="translate(0,-16) scale(1,-1)">168</text>
						</g>
						<g transform=" matrix(1,0,0,1,754.105263,700)">
							<text x="-6.672" y="-8.0" style="font-family: Helvetica; font-size: 8px;fill: rgb(0%,0%,0%); stroke:none;" transform="translate(0,-16) scale(1,-1)">192</text>
						</g>
						<g transform=" matrix(1,0,0,1,972,700)">
							<text x="-6.672" y="-8.0" style="font-family: Helvetica; font-size: 8px;fill: rgb(0%,0%,0%); stroke:none;" transform="translate(0,-16) scale(1,-1)">215</text>
						</g>
					</g>
				</g>
				<g transform="">
					<g transform="">
						<path d="M 72,705 L 72,860 Z" style="stroke: rgb(58%,63%,72%); stroke-linecap: butt; stroke-width: 1;"/>
					</g>
					<g transform="">
						<path d="M 72,713.305073 L 67,713.305073 Z" style="stroke: rgb(58%,63%,72%); stroke-linecap: butt; stroke-width: 1;"/>
						<path d="M 72,747.174743 L 67,747.174743 Z" style="stroke: rgb(58%,63%,72%); stroke-linecap: butt; stroke-width: 1;"/>
						<path d="M 72,781.044413 L 67,781.044413 Z" style="stroke: rgb(58%,63%,72%); stroke-linecap: butt; stroke-width: 1;"/>
						<path d="M 72,814.914082 L 67,814.914082 Z" style="stroke: rgb(58%,63%,72%); stroke-linecap: butt; stroke-width: 1;"/>
						<path d="M 72,848.783752 L 67,848.783752 Z" style="stroke: rgb(58%,63%,72%); stroke-linecap: butt; stroke-width: 1;"/>
					</g>
					<g transform="">
						<g transform=" matrix(1,0,0,1,67,713.305073)">
							<text x="-20.016000000000002" y="-3.2" style="font-family: Helvetica; font-size: 8px;fill: rgb(0%,0%,0%); stroke:none;" transform="translate(0,-6) scale(1,-1)">0.000</text>
						</g>
						<g transform=" matrix(1,0,0,1,67,747.174743)">
							<text x="-20.016000000000002" y="-3.2" style="font-family: Helvetica; font-size: 8px;fill: rgb(0%,0%,0%); stroke:none;" transform="translate(0,-6) scale(1,-1)">0.050</text>
						</g>
						<g transform=" matrix(1,0,0,1,67,781.044413)">
							<text x="-20.016000000000002" y="-3.2" style="font-family: Helvetica; font-size: 8px;fill: rgb(0%,0%,0%); stroke:none;" transform="translate(0,-6) scale(1,-1)">0.100</text>
						</g>
						<g transform=" matrix(1,0,0,1,67,814.914082)">
							<text x="-20.016000000000002" y="-3.2" style="font-family: Helvetica; font-size: 8px;fill: rgb(0%,0%,0%); stroke:none;" transform="translate(0,-6) scale(1,-1)">0.150</text>
						</g>
						<g transform=" matrix(1,0,0,1,67,848.783752)">
							<text x="-20.016000000000002" y="-3.2" style="font-family: Helvetica; font-size: 8px;fill: rgb(0%,0%,0%); stroke:none;" transform="translate(0,-6) scale(1,-1)">0.200</text>
						</g>
					</g>
				</g>
				<path d="M 72,713.305073 L 972,713.305073 Z" style="stroke: rgb(88%,90%,94%); stroke-linecap: butt; stroke-width: 0.25;"/>
				<path d="M 72,747.174743 L 972,747.174743 Z" style="stroke: rgb(88%,90%,94%); stroke-linecap: butt; stroke-width: 0.25;"/>
				<path d="M 72,781.044413 L 972,781.044413 Z" style="stroke: rgb(88%,90%,94%); stroke-linecap: butt; stroke-width: 0.25;"/>
				<path d="M 72,814.914082 L 972,814.914082 Z" style="stroke: rgb(88%,90%,94%); stroke-linecap: butt; stroke-width: 0.25;"/>
				<path d="M 72,848.783752 L 972,848.783752 Z" style="stroke: rgb(88%,90%,94%); stroke-linecap: butt; stroke-width: 0.25;"/>
				<g transform="">
					<polyline points="72 713.3051, 81.47368 713.3051, 90.94737 713.3051, 100.4211 713.3051, 109.8947 713.3051, 119.3684 713.3051, 128.8421 713.3051, 138.3158 713.3312, 147.7895 713.3312, 157.2632 713.3312, 166.7368 713.3051, 176.2105 713.3051, 185.6842 713.6711, 195.1579 713.6711, 204.6316 713.6711, 214.1053 713.3051, 223.5789 713.3051, 233.0526 715.2397, 242.5263 715.2397, 252 715.2397, 261.4737 713.3051, 270.9474 713.3051, 280.4211 713.3051, 289.8947 713.3051, 299.3684 713.3051, 308.8421 713.3051, 318.3158 713.3051, 327.7895 713.3051, 337.2632 713.3051, 346.7368 713.3051, 356.2105 713.3051, 365.6842 713.3051, 375.1579 713.3051, 384.6316 713.3051, 394.1053 713.3051, 403.5789 713.3051, 413.0526 713.3051, 422.5263 713.3051, 432 713.462, 441.4737 713.462, 450.9474 713.462, 460.4211 713.3051, 469.8947 713.3051, 479.3684 713.3051, 488.8421 713.3051, 498.3158 713.3051, 507.7895 713.3051, 517.2632 713.3051, 526.7368 713.3051, 536.2105 713.3051, 545.6842 713.3051, 555.1579 713.3051, 564.6316 713.3051, 574.1053 713.3051, 583.5789 713.3051, 593.0526 713.3051, 602.5263 713.4097, 612 715.789, 621.4737 851.6964, 630.9474 851.5918, 640.4211 849.2125, 649.8947 713.3051, 659.3684 713.3051, 668.8421 713.3051, 678.3158 713.3051, 687.7895 713.3051, 697.2632 713.3051, 706.7368 713.3051, 716.2105 713.3051, 725.6842 713.3051, 735.1579 713.3051, 744.6316 713.3051, 754.1053 713.3051, 763.5789 713.3051, 773.0526 713.3051, 782.5263 713.3051, 792 713.3051, 801.4737 713.3051, 810.9474 713.3051, 820.4211 713.3312, 829.8947 713.3312, 839.3684 713.3312, 848.8421 713.4096, 858.3158 713.4096, 867.7895 713.4096, 877.2632 713.3051, 886.7368 713.3051, 896.2105 713.3051, 905.6842 713.3051, 915.1579 713.3051, 924.6316 713.3051, 934.1053 713.3051, 943.5789 713.3051, 953.0526 713.3051, 962.5263 713.3051, 972 713.3051" style="stroke: rgb(5%,9%,16%); stroke-linecap: round; stroke-width: 1.5; fill: None; fill-rule: evenodd;"/>
					<polyline points="72 713.4617, 81.47368 713.5236, 90.94737 713.8277, 100.4211 713.7261, 109.8947 714.7279, 119.3684 714.6146, 128.8421 713.8724, 138.3158 713.8442, 147.7895 713.6802, 157.2632 713.536, 166.7368 713.6695, 176.2105 713.5375, 185.6842 713.5012, 195.1579 713.5667, 204.6316 713.631, 214.1053 713.7945, 223.5789 713.8031, 233.0526 714.3789, 242.5263 715.2057, 252 714.8602, 261.4737 715.0294, 270.9474 714.5798, 280.4211 714.4103, 289.8947 714.2705, 299.3684 713.8409, 308.8421 713.5572, 318.3158 713.563, 327.7895 713.3966, 337.2632 713.4248, 346.7368 714.0244, 356.2105 713.9143, 365.6842 713.9748, 375.1579 714.1754, 384.6316 714.6, 394.1053 714.6007, 403.5789 714.0069, 413.0526 714.1201, 422.5263 713.996, 432 714.0986, 441.4737 714.0965, 450.9474 713.7608, 460.4211 713.4176, 469.8947 713.4331, 479.3684 713.3451, 488.8421 713.3421, 498.3158 713.3262, 507.7895 713.344, 517.2632 713.3531, 526.7368 713.3416, 536.2105 713.3419, 545.6842 713.3317, 555.1579 713.3518, 564.6316 713.3371, 574.1053 713.3235, 583.5789 713.3366, 593.0526 713.3354, 602.5263 713.3559, 612 713.374, 621.4737 713.3842, 630.9474 713.3739, 640.4211 713.3678, 649.8947 713.3547, 659.3684 713.3506, 668.8421 713.3512, 678.3158 713.3345, 687.7895 713.3268, 697.2632 713.3268, 706.7368 713.3215, 716.2105 713.3189, 725.6842 713.3244, 735.1579 713.318, 744.6316 713.3061, 754.1053 713.3067, 763.5789 713.3119, 773.0526 713.3097, 782.5263 713.3067, 792 713.3088, 801.4737 713.3036, 810.9474 713.3274, 820.4211 713.3411, 829.8947 713.3481, 839.3684 713.3655, 848.8421 713.4647, 858.3158 713.3706, 867.7895 713.3641, 877.2632 713.3631, 886.7368 713.3935, 896.2105 713.3935, 905.6842 713.3858, 915.1579 713.3412, 924.6316 713.347, 934.1053 713.3503, 943.5789 713.413, 953.0526 713.4133, 962.5263 713.4075, 972 713.414" style="stroke: rgb(85%,46%,2%); stroke-linecap: round; stroke-width: 1.5; fill: None; fill-rule: evenodd; stroke-dasharray: 4, 2;"/>
					<polyline points="72 713.8474, 81.47368 713.8581, 90.94737 713.8427, 100.4211 713.9941, 109.8947 714.662, 119.3684 715.0337, 128.8421 715.273, 138.3158 714.609, 147.7895 714.6813, 157.2632 715.4022, 166.7368 713.8185, 176.2105 713.5019, 185.6842 713.5343, 195.1579 713.8064, 204.6316 713.5746, 214.1053 713.8349, 223.5789 714.0277, 233.0526 714.3554, 242.5263 714.8897, 252 714.9913, 261.4737 715.1864, 270.9474 714.6127, 280.4211 714.7372, 289.8947 714.4777, 299.3684 713.8557, 308.8421 713.661, 318.3158 713.8259, 327.7895 713.5197, 337.2632 713.4637, 346.7368 713.7174, 356.2105 713.6797, 365.6842 713.777, 375.1579 713.8304, 384.6316 714.1804, 394.1053 713.8891, 403.5789 713.7191, 413.0526 713.6207, 422.5263 713.5942, 432 713.5963, 441.4737 713.5816, 450.9474 713.4744, 460.4211 713.4013, 469.8947 713.383, 479.3684 713.3449, 488.8421 713.3689, 498.3158 713.4243, 507.7895 713.3664, 517.2632 713.3417, 526.7368 713.3413, 536.2105 713.3414, 545.6842 713.3397, 555.1579 713.3521, 564.6316 713.3376, 574.1053 713.3376, 583.5789 713.3443, 593.0526 713.356, 602.5263 713.359, 612 713.379, 621.4737 713.4051, 630.9474 713.7579, 640.4211 713.3814, 649.8947 713.3699, 659.3684 713.3636, 668.8421 713.3577, 678.3158 713.3546, 687.7895 713.3536, 697.2632 713.3428, 706.7368 713.3404, 716.2105 713.341, 725.6842 713.3389, 735.1579 713.3367, 744.6316 713.3336, 754.1053 713.3338, 763.5789 713.335, 773.0526 713.335, 782.5263 713.3343, 792 713.3484, 801.4737 713.3449, 810.9474 713.3453, 820.4211 713.3669, 829.8947 713.3737, 839.3684 713.3711, 848.8421 713.4625, 858.3158 713.3807, 867.7895 713.3725, 877.2632 713.3703, 886.7368 713.3716, 896.2105 713.369, 905.6842 713.3653, 915.1579 713.3547, 924.6316 713.3485, 934.1053 713.3473, 943.5789 713.3621, 953.0526 713.3595, 962.5263 713.3573, 972 713.3655" style="stroke: rgb(14%,38%,92%); stroke-linecap: round; stroke-width: 1.5; fill: None; fill-rule: evenodd;"/>
				</g>
			</g>
			<text x="72" y="890" style="font-family: Helvetica-Bold; font-size: 11px;fill: rgb(5%,9%,16%); stroke:none;" transform="translate(0,1780) scale(1,-1)">N: amplitude and timing</text>
			<path d="M 72,873 L 92,873 Z" style="stroke: rgb(5%,9%,16%); stroke-linecap: butt; stroke-width: 2;"/>
			<text x="98" y="870" style="font-family: Helvetica; font-size: 9px;fill: rgb(20%,25%,33%); stroke:none;" transform="translate(0,1740) scale(1,-1)">Official N</text>
			<path d="M 277,873 L 297,873 Z" style="stroke: rgb(85%,46%,2%); stroke-linecap: butt; stroke-width: 2;"/>
			<text x="303" y="870" style="font-family: Helvetica; font-size: 9px;fill: rgb(20%,25%,33%); stroke:none;" transform="translate(0,1740) scale(1,-1)">Raw source N</text>
			<path d="M 482,873 L 502,873 Z" style="stroke: rgb(14%,38%,92%); stroke-linecap: butt; stroke-width: 2;"/>
			<text x="508" y="870" style="font-family: Helvetica; font-size: 9px;fill: rgb(20%,25%,33%); stroke:none;" transform="translate(0,1740) scale(1,-1)">C3 aligned N</text>
			<g transform="">
				<g transform="">
					<g transform="">
						<path d="M 72,480 L 972,480 Z" style="stroke: rgb(58%,63%,72%); stroke-linecap: butt; stroke-width: 1;"/>
					</g>
					<g transform="">
						<path d="M 72,480 L 72,475 Z" style="stroke: rgb(58%,63%,72%); stroke-linecap: butt; stroke-width: 1;"/>
						<path d="M 299.368421,480 L 299.368421,475 Z" style="stroke: rgb(58%,63%,72%); stroke-linecap: butt; stroke-width: 1;"/>
						<path d="M 526.736842,480 L 526.736842,475 Z" style="stroke: rgb(58%,63%,72%); stroke-linecap: butt; stroke-width: 1;"/>
						<path d="M 754.105263,480 L 754.105263,475 Z" style="stroke: rgb(58%,63%,72%); stroke-linecap: butt; stroke-width: 1;"/>
						<path d="M 972,480 L 972,475 Z" style="stroke: rgb(58%,63%,72%); stroke-linecap: butt; stroke-width: 1;"/>
					</g>
					<g transform="">
						<g transform=" matrix(1,0,0,1,72,475)">
							<text x="-6.672" y="-8.0" style="font-family: Helvetica; font-size: 8px;fill: rgb(0%,0%,0%); stroke:none;" transform="translate(0,-16) scale(1,-1)">120</text>
						</g>
						<g transform=" matrix(1,0,0,1,299.368421,475)">
							<text x="-6.672" y="-8.0" style="font-family: Helvetica; font-size: 8px;fill: rgb(0%,0%,0%); stroke:none;" transform="translate(0,-16) scale(1,-1)">144</text>
						</g>
						<g transform=" matrix(1,0,0,1,526.736842,475)">
							<text x="-6.672" y="-8.0" style="font-family: Helvetica; font-size: 8px;fill: rgb(0%,0%,0%); stroke:none;" transform="translate(0,-16) scale(1,-1)">168</text>
						</g>
						<g transform=" matrix(1,0,0,1,754.105263,475)">
							<text x="-6.672" y="-8.0" style="font-family: Helvetica; font-size: 8px;fill: rgb(0%,0%,0%); stroke:none;" transform="translate(0,-16) scale(1,-1)">192</text>
						</g>
						<g transform=" matrix(1,0,0,1,972,475)">
							<text x="-6.672" y="-8.0" style="font-family: Helvetica; font-size: 8px;fill: rgb(0%,0%,0%); stroke:none;" transform="translate(0,-16) scale(1,-1)">215</text>
						</g>
					</g>
				</g>
				<g transform="">
					<g transform="">
						<path d="M 72,480 L 72,635 Z" style="stroke: rgb(58%,63%,72%); stroke-linecap: butt; stroke-width: 1;"/>
					</g>
					<g transform="">
						<path d="M 72,480 L 67,480 Z" style="stroke: rgb(58%,63%,72%); stroke-linecap: butt; stroke-width: 1;"/>
						<path d="M 72,527.716279 L 67,527.716279 Z" style="stroke: rgb(58%,63%,72%); stroke-linecap: butt; stroke-width: 1;"/>
						<path d="M 72,575.432558 L 67,575.432558 Z" style="stroke: rgb(58%,63%,72%); stroke-linecap: butt; stroke-width: 1;"/>
						<path d="M 72,623.148837 L 67,623.148837 Z" style="stroke: rgb(58%,63%,72%); stroke-linecap: butt; stroke-width: 1;"/>
					</g>
					<g transform="">
						<g transform=" matrix(1,0,0,1,67,480)">
							<text x="-20.016000000000002" y="-3.2" style="font-family: Helvetica; font-size: 8px;fill: rgb(0%,0%,0%); stroke:none;" transform="translate(0,-6) scale(1,-1)">0.000</text>
						</g>
						<g transform=" matrix(1,0,0,1,67,527.716279)">
							<text x="-20.016000000000002" y="-3.2" style="font-family: Helvetica; font-size: 8px;fill: rgb(0%,0%,0%); stroke:none;" transform="translate(0,-6) scale(1,-1)">0.200</text>
						</g>
						<g transform=" matrix(1,0,0,1,67,575.432558)">
							<text x="-20.016000000000002" y="-3.2" style="font-family: Helvetica; font-size: 8px;fill: rgb(0%,0%,0%); stroke:none;" transform="translate(0,-6) scale(1,-1)">0.400</text>
						</g>
						<g transform=" matrix(1,0,0,1,67,623.148837)">
							<text x="-20.016000000000002" y="-3.2" style="font-family: Helvetica; font-size: 8px;fill: rgb(0%,0%,0%); stroke:none;" transform="translate(0,-6) scale(1,-1)">0.600</text>
						</g>
					</g>
				</g>
				<path d="M 72,527.716279 L 972,527.716279 Z" style="stroke: rgb(88%,90%,94%); stroke-linecap: butt; stroke-width: 0.25;"/>
				<path d="M 72,575.432558 L 972,575.432558 Z" style="stroke: rgb(88%,90%,94%); stroke-linecap: butt; stroke-width: 0.25;"/>
				<path d="M 72,623.148837 L 972,623.148837 Z" style="stroke: rgb(88%,90%,94%); stroke-linecap: butt; stroke-width: 0.25;"/>
				<g transform="">
					<polyline points="72 483.2595, 81.47368 483.2595, 90.94737 483.2595, 100.4211 483.2595, 109.8947 483.2595, 119.3684 483.2595, 128.8421 483.2595, 138.3158 483.2595, 147.7895 483.2872, 157.2632 483.2595, 166.7368 480.6353, 176.2105 480.6353, 185.6842 480.6353, 195.1579 481.0221, 204.6316 481.0221, 214.1053 481.0221, 223.5789 481.0221, 233.0526 481.0221, 242.5263 483.0662, 252 483.0662, 261.4737 483.0662, 270.9474 483.0662, 280.4211 483.0662, 289.8947 483.0662, 299.3684 483.0662, 308.8421 483.0662, 318.3158 483.0662, 327.7895 483.0662, 337.2632 483.0662, 346.7368 483.0662, 356.2105 483.0662, 365.6842 480.6353, 375.1579 480.6353, 384.6316 480.6353, 394.1053 480.6353, 403.5789 480.221, 413.0526 480.221, 422.5263 480.221, 432 480.221, 441.4737 480.3868, 450.9474 480.2763, 460.4211 480.221, 469.8947 480.221, 479.3684 480, 488.8421 480, 498.3158 480, 507.7895 480, 517.2632 480, 526.7368 480, 536.2105 480, 545.6842 480, 555.1579 480, 564.6316 480, 574.1053 480, 583.5789 480, 593.0526 480, 602.5263 480, 612 480.1105, 621.4737 482.6245, 630.9474 626.2264, 640.4211 519.5333, 649.8947 501.4657, 659.3684 480.1105, 668.8421 480.1105, 678.3158 480, 687.7895 480, 697.2632 480, 706.7368 480, 716.2105 480, 725.6842 480, 735.1579 480, 744.6316 480, 754.1053 480, 763.5789 480, 773.0526 480, 782.5263 480, 792 480, 801.4737 480, 810.9474 480, 820.4211 480, 829.8947 480.0276, 839.3684 480, 848.8421 480, 858.3158 480.1105, 867.7895 480, 877.2632 480, 886.7368 480, 896.2105 480, 905.6842 480, 915.1579 480, 924.6316 480, 934.1053 480, 943.5789 480, 953.0526 480, 962.5263 480, 972 480" style="stroke: rgb(5%,9%,16%); stroke-linecap: round; stroke-width: 1.5; fill: None; fill-rule: evenodd;"/>
					<polyline points="72 482.7683, 81.47368 482.1317, 90.94737 482.365, 100.4211 483.0101, 109.8947 483.0583, 119.3684 484.2649, 128.8421 483.9102, 138.3158 483.7529, 147.7895 484.1521, 157.2632 482.1604, 166.7368 481.5062, 176.2105 481.0706, 185.6842 480.7056, 195.1579 480.7545, 204.6316 480.4746, 214.1053 480.4199, 223.5789 480.0985, 233.0526 480.4684, 242.5263 480.769, 252 480.9354, 261.4737 482.277, 270.9474 482.5726, 280.4211 482.0855, 289.8947 482.1931, 299.3684 482.008, 308.8421 481.9766, 318.3158 481.829, 327.7895 481.7532, 337.2632 481.3942, 346.7368 481.9616, 356.2105 481.723, 365.6842 481.6867, 375.1579 481.5988, 384.6316 481.8502, 394.1053 481.6352, 403.5789 481.4089, 413.0526 481.3383, 422.5263 481.1037, 432 480.7895, 441.4737 480.3841, 450.9474 480.3711, 460.4211 480.5027, 469.8947 480.4497, 479.3684 480.4179, 488.8421 480.4306, 498.3158 480.0843, 507.7895 480.1204, 517.2632 480, 526.7368 480.0345, 536.2105 480.048, 545.6842 480.0289, 555.1579 480.0315, 564.6316 480.0491, 574.1053 480.0616, 583.5789 480.0649, 593.0526 480.0515, 602.5263 480.058, 612 480.0578, 621.4737 480.0578, 630.9474 480.0513, 640.4211 480.0507, 649.8947 480.0494, 659.3684 480.0458, 668.8421 480.049, 678.3158 480.047, 687.7895 480.0411, 697.2632 480.0525, 706.7368 480.0396, 716.2105 480.0373, 725.6842 480.0369, 735.1579 480.0371, 744.6316 480.0339, 754.1053 480.0371, 763.5789 480.0361, 773.0526 480.1516, 782.5263 480.146, 792 480.147, 801.4737 480.1462, 810.9474 480.1476, 820.4211 480.1528, 829.8947 480.1629, 839.3684 480.1692, 848.8421 480.1898, 858.3158 480.154, 867.7895 480.0384, 877.2632 480.1463, 886.7368 480.0688, 896.2105 480.0567, 905.6842 480.0009, 915.1579 480.0064, 924.6316 480.0025, 934.1053 480.0307, 943.5789 480.0217, 953.0526 480.0766, 962.5263 480.028, 972 480.0859" style="stroke: rgb(85%,46%,2%); stroke-linecap: round; stroke-width: 1.5; fill: None; fill-rule: evenodd; stroke-dasharray: 4, 2;"/>
					<polyline points="72 480, 81.47368 480, 90.94737 480, 100.4211 480, 109.8947 480, 119.3684 480, 128.8421 480, 138.3158 480, 147.7895 480.0092, 157.2632 480.8839, 166.7368 480.8839, 176.2105 480.8747, 185.6842 480, 195.1579 480, 204.6316 480, 214.1053 480, 223.5789 480, 233.0526 480, 242.5263 480, 252 480, 261.4737 480, 270.9474 480, 280.4211 480, 289.8947 480, 299.3684 480, 308.8421 480, 318.3158 480, 327.7895 480, 337.2632 480, 346.7368 480, 356.2105 480.8103, 365.6842 480.8103, 375.1579 480.8103, 384.6316 480, 394.1053 480.1381, 403.5789 480.1381, 413.0526 480.1381, 422.5263 480, 432 480, 441.4737 480.0368, 450.9474 480.0553, 460.4211 480.0553, 469.8947 480.0921, 479.3684 480.0737, 488.8421 480.0737, 498.3158 480, 507.7895 480, 517.2632 480, 526.7368 480, 536.2105 480, 545.6842 480, 555.1579 480, 564.6316 480, 574.1053 480, 583.5789 480, 593.0526 480, 602.5263 480, 612 480, 621.4737 480, 630.9474 515.5644, 640.4211 521.5869, 649.8947 528.7045, 659.3684 493.1401, 668.8421 487.1544, 678.3158 480.0368, 687.7895 480.0368, 697.2632 480, 706.7368 480, 716.2105 480, 725.6842 480, 735.1579 480, 744.6316 480, 754.1053 480, 763.5789 480, 773.0526 480, 782.5263 480, 792 480, 801.4737 480, 810.9474 480, 820.4211 480, 829.8947 480.0092, 839.3684 480.0092, 848.8421 480.0092, 858.3158 480.0368, 867.7895 480.0368, 877.2632 480.0368, 886.7368 480, 896.2105 480, 905.6842 480, 915.1579 480, 924.6316 480, 934.1053 480, 943.5789 480, 953.0526 480, 962.5263 480, 972 480" style="stroke: rgb(14%,38%,92%); stroke-linecap: round; stroke-width: 1.5; fill: None; fill-rule: evenodd;"/>
					<polyline points="72 480.3803, 81.47368 480.3986, 90.94737 480.454, 100.4211 480.3007, 109.8947 480.3088, 119.3684 480.3927, 128.8421 480.826, 138.3158 480.9029, 147.7895 480.9196, 157.2632 481.0554, 166.7368 480.8187, 176.2105 480.9192, 185.6842 480.7769, 195.1579 480.8866, 204.6316 480.56, 214.1053 480.4148, 223.5789 480.3884, 233.0526 480.3226, 242.5263 480.3178, 252 480.3656, 261.4737 480.2895, 270.9474 480.2454, 280.4211 480.2101, 289.8947 480.2107, 299.3684 480.2115, 308.8421 480.184, 318.3158 480.1924, 327.7895 480.1962, 337.2632 480.1231, 346.7368 480.1351, 356.2105 480.156, 365.6842 480.1899, 375.1579 480.1005, 384.6316 480.1521, 394.1053 480.2346, 403.5789 480.2186, 413.0526 480.3365, 422.5263 480.5121, 432 480.5187, 441.4737 480.63, 450.9474 480.6982, 460.4211 480.5665, 469.8947 480.4355, 479.3684 480.3766, 488.8421 480.1206, 498.3158 480.0983, 507.7895 480.0485, 517.2632 480.0183, 526.7368 480.0161, 536.2105 480.0138, 545.6842 480.0138, 555.1579 480.0136, 564.6316 480.0152, 574.1053 480.0137, 583.5789 480.0122, 593.0526 480.0062, 602.5263 480.0081, 612 480.0249, 621.4737 480.0404, 630.9474 480.0498, 640.4211 480.0498, 649.8947 480.0477, 659.3684 480.0488, 668.8421 480.0446, 678.3158 480.0416, 687.7895 480.0315, 697.2632 480.0315, 706.7368 480.0314, 716.2105 480.0226, 725.6842 480.0312, 735.1579 480.0312, 744.6316 480.0304, 754.1053 480.0093, 763.5789 480.0093, 773.0526 480.0093, 782.5263 480.0095, 792 480.0095, 801.4737 480.0095, 810.9474 480.0095, 820.4211 480.0095, 829.8947 480.02, 839.3684 480.0226, 848.8421 480.0318, 858.3158 480.0393, 867.7895 480.0319, 877.2632 480.0242, 886.7368 480.0228, 896.2105 480.0189, 905.6842 480.0138, 915.1579 480.0135, 924.6316 480.0154, 934.1053 480.0154, 943.5789 480.0433, 953.0526 480.0379, 962.5263 480.0077, 972 480.009" style="stroke: rgb(1%,58%,41%); stroke-linecap: round; stroke-width: 1.5; fill: None; fill-rule: evenodd;"/>
				</g>
			</g>
			<text x="72" y="665" style="font-family: Helvetica-Bold; font-size: 11px;fill: rgb(5%,9%,16%); stroke:none;" transform="translate(0,1330) scale(1,-1)">P and R context (current main-rule components)</text>
			<path d="M 72,648 L 92,648 Z" style="stroke: rgb(5%,9%,16%); stroke-linecap: butt; stroke-width: 2;"/>
			<text x="98" y="645" style="font-family: Helvetica; font-size: 9px;fill: rgb(20%,25%,33%); stroke:none;" transform="translate(0,1290) scale(1,-1)">Official P</text>
			<path d="M 277,648 L 297,648 Z" style="stroke: rgb(85%,46%,2%); stroke-linecap: butt; stroke-width: 2;"/>
			<text x="303" y="645" style="font-family: Helvetica; font-size: 9px;fill: rgb(20%,25%,33%); stroke:none;" transform="translate(0,1290) scale(1,-1)">Current P</text>
			<path d="M 482,648 L 502,648 Z" style="stroke: rgb(14%,38%,92%); stroke-linecap: butt; stroke-width: 2;"/>
			<text x="508" y="645" style="font-family: Helvetica; font-size: 9px;fill: rgb(20%,25%,33%); stroke:none;" transform="translate(0,1290) scale(1,-1)">Official R</text>
			<path d="M 687,648 L 707,648 Z" style="stroke: rgb(1%,58%,41%); stroke-linecap: butt; stroke-width: 2;"/>
			<text x="713" y="645" style="font-family: Helvetica; font-size: 9px;fill: rgb(20%,25%,33%); stroke:none;" transform="translate(0,1290) scale(1,-1)">Current R</text>
			<g transform="">
				<g transform="">
					<g transform="">
						<path d="M 72,255 L 972,255 Z" style="stroke: rgb(58%,63%,72%); stroke-linecap: butt; stroke-width: 1;"/>
					</g>
					<g transform="">
						<path d="M 72,255 L 72,250 Z" style="stroke: rgb(58%,63%,72%); stroke-linecap: butt; stroke-width: 1;"/>
						<path d="M 299.368421,255 L 299.368421,250 Z" style="stroke: rgb(58%,63%,72%); stroke-linecap: butt; stroke-width: 1;"/>
						<path d="M 526.736842,255 L 526.736842,250 Z" style="stroke: rgb(58%,63%,72%); stroke-linecap: butt; stroke-width: 1;"/>
						<path d="M 754.105263,255 L 754.105263,250 Z" style="stroke: rgb(58%,63%,72%); stroke-linecap: butt; stroke-width: 1;"/>
						<path d="M 972,255 L 972,250 Z" style="stroke: rgb(58%,63%,72%); stroke-linecap: butt; stroke-width: 1;"/>
					</g>
					<g transform="">
						<g transform=" matrix(1,0,0,1,72,250)">
							<text x="-6.672" y="-8.0" style="font-family: Helvetica; font-size: 8px;fill: rgb(0%,0%,0%); stroke:none;" transform="translate(0,-16) scale(1,-1)">120</text>
						</g>
						<g transform=" matrix(1,0,0,1,299.368421,250)">
							<text x="-6.672" y="-8.0" style="font-family: Helvetica; font-size: 8px;fill: rgb(0%,0%,0%); stroke:none;" transform="translate(0,-16) scale(1,-1)">144</text>
						</g>
						<g transform=" matrix(1,0,0,1,526.736842,250)">
							<text x="-6.672" y="-8.0" style="font-family: Helvetica; font-size: 8px;fill: rgb(0%,0%,0%); stroke:none;" transform="translate(0,-16) scale(1,-1)">168</text>
						</g>
						<g transform=" matrix(1,0,0,1,754.105263,250)">
							<text x="-6.672" y="-8.0" style="font-family: Helvetica; font-size: 8px;fill: rgb(0%,0%,0%); stroke:none;" transform="translate(0,-16) scale(1,-1)">192</text>
						</g>
						<g transform=" matrix(1,0,0,1,972,250)">
							<text x="-6.672" y="-8.0" style="font-family: Helvetica; font-size: 8px;fill: rgb(0%,0%,0%); stroke:none;" transform="translate(0,-16) scale(1,-1)">215</text>
						</g>
					</g>
				</g>
				<g transform="">
					<g transform="">
						<path d="M 72,255 L 72,410 Z" style="stroke: rgb(58%,63%,72%); stroke-linecap: butt; stroke-width: 1;"/>
					</g>
					<g transform="">
						<path d="M 72,255 L 67,255 Z" style="stroke: rgb(58%,63%,72%); stroke-linecap: butt; stroke-width: 1;"/>
						<path d="M 72,299.622037 L 67,299.622037 Z" style="stroke: rgb(58%,63%,72%); stroke-linecap: butt; stroke-width: 1;"/>
						<path d="M 72,344.244074 L 67,344.244074 Z" style="stroke: rgb(58%,63%,72%); stroke-linecap: butt; stroke-width: 1;"/>
						<path d="M 72,388.866111 L 67,388.866111 Z" style="stroke: rgb(58%,63%,72%); stroke-linecap: butt; stroke-width: 1;"/>
					</g>
					<g transform="">
						<g transform=" matrix(1,0,0,1,67,255)">
							<text x="-20.016000000000002" y="-3.2" style="font-family: Helvetica; font-size: 8px;fill: rgb(0%,0%,0%); stroke:none;" transform="translate(0,-6) scale(1,-1)">0.000</text>
						</g>
						<g transform=" matrix(1,0,0,1,67,299.622037)">
							<text x="-20.016000000000002" y="-3.2" style="font-family: Helvetica; font-size: 8px;fill: rgb(0%,0%,0%); stroke:none;" transform="translate(0,-6) scale(1,-1)">0.100</text>
						</g>
						<g transform=" matrix(1,0,0,1,67,344.244074)">
							<text x="-20.016000000000002" y="-3.2" style="font-family: Helvetica; font-size: 8px;fill: rgb(0%,0%,0%); stroke:none;" transform="translate(0,-6) scale(1,-1)">0.200</text>
						</g>
						<g transform=" matrix(1,0,0,1,67,388.866111)">
							<text x="-20.016000000000002" y="-3.2" style="font-family: Helvetica; font-size: 8px;fill: rgb(0%,0%,0%); stroke:none;" transform="translate(0,-6) scale(1,-1)">0.300</text>
						</g>
					</g>
				</g>
				<path d="M 72,299.622037 L 972,299.622037 Z" style="stroke: rgb(88%,90%,94%); stroke-linecap: butt; stroke-width: 0.25;"/>
				<path d="M 72,344.244074 L 972,344.244074 Z" style="stroke: rgb(88%,90%,94%); stroke-linecap: butt; stroke-width: 0.25;"/>
				<path d="M 72,388.866111 L 972,388.866111 Z" style="stroke: rgb(88%,90%,94%); stroke-linecap: butt; stroke-width: 0.25;"/>
				<g transform="">
					<polyline points="72 259.0606, 81.47368 259.016, 90.94737 258.9714, 100.4211 258.9714, 109.8947 258.9714, 119.3684 258.9714, 128.8421 258.9714, 138.3158 258.9714, 147.7895 258.9714, 157.2632 258.7929, 166.7368 256.651, 176.2105 256.4279, 185.6842 256.4725, 195.1579 256.6064, 204.6316 256.4279, 214.1053 256.1602, 223.5789 256.1602, 233.0526 256.651, 242.5263 258.3913, 252 258.5251, 261.4737 258.2574, 270.9474 258.3913, 280.4211 258.5698, 289.8947 258.7483, 299.3684 258.7483, 308.8421 258.7483, 318.3158 258.7483, 327.7895 258.7483, 337.2632 258.7483, 346.7368 258.7483, 356.2105 258.5698, 365.6842 256.5618, 375.1579 256.3833, 384.6316 256.3387, 394.1053 256.1156, 403.5789 255.5801, 413.0526 255.357, 422.5263 255.357, 432 255.357, 441.4737 255.4462, 450.9474 255.357, 460.4211 255.2677, 469.8947 255.2677, 479.3684 255.0892, 488.8421 255.0892, 498.3158 255.0446, 507.7895 255.0446, 517.2632 255, 526.7368 255, 536.2105 255, 545.6842 255, 555.1579 255, 564.6316 255, 574.1053 255, 583.5789 255, 593.0526 255, 602.5263 255.0446, 612 255.6693, 621.4737 289.0912, 630.9474 401.2264, 640.4211 322.8255, 649.8947 278.2927, 659.3684 269.0113, 668.8421 270.1269, 678.3158 271.1532, 687.7895 259.7746, 697.2632 256.6956, 706.7368 255, 716.2105 255, 725.6842 255, 735.1579 255, 744.6316 255, 754.1053 255, 763.5789 255, 773.0526 255, 782.5263 255, 792 255, 801.4737 255, 810.9474 255, 820.4211 255, 829.8947 255.0446, 839.3684 255, 848.8421 255.0446, 858.3158 255.0892, 867.7895 255.0446, 877.2632 255, 886.7368 255, 896.2105 255, 905.6842 255, 915.1579 255, 924.6316 255, 934.1053 255, 943.5789 255, 953.0526 255, 962.5263 255, 972 255" style="stroke: rgb(5%,9%,16%); stroke-linecap: round; stroke-width: 1.5; fill: None; fill-rule: evenodd;"/>
					<polyline points="72 258.9688, 81.47368 258.2162, 90.94737 258.4716, 100.4211 259.0758, 109.8947 259.3659, 119.3684 260.0349, 128.8421 259.5438, 138.3158 259.3681, 147.7895 260.0111, 157.2632 257.8241, 166.7368 257.5574, 176.2105 257.1065, 185.6842 256.7503, 195.1579 256.6027, 204.6316 256.2266, 214.1053 255.9117, 223.5789 255.8066, 233.0526 256.135, 242.5263 256.531, 252 256.7087, 261.4737 258.0105, 270.9474 258.1897, 280.4211 257.8412, 289.8947 257.9335, 299.3684 257.6756, 308.8421 257.6581, 318.3158 257.6127, 327.7895 257.466, 337.2632 257.3218, 346.7368 257.5325, 356.2105 257.2929, 365.6842 257.4291, 375.1579 257.2802, 384.6316 257.532, 394.1053 257.4375, 403.5789 257.2137, 413.0526 257.2317, 422.5263 257.0926, 432 256.8684, 441.4737 256.4287, 450.9474 256.3401, 460.4211 256.2041, 469.8947 256.1371, 479.3684 256.0448, 488.8421 255.9024, 498.3158 255, 507.7895 255, 517.2632 255, 526.7368 255, 536.2105 255, 545.6842 255, 555.1579 255, 564.6316 255, 574.1053 255, 583.5789 255, 593.0526 255, 602.5263 255, 612 255, 621.4737 255, 630.9474 255, 640.4211 255, 649.8947 255, 659.3684 255, 668.8421 255, 678.3158 255, 687.7895 255, 697.2632 255, 706.7368 255, 716.2105 255, 725.6842 255, 735.1579 255, 744.6316 255, 754.1053 255, 763.5789 255, 773.0526 255, 782.5263 255, 792 255, 801.4737 255, 810.9474 255, 820.4211 255, 829.8947 255, 839.3684 255, 848.8421 255, 858.3158 255, 867.7895 255, 877.2632 255, 886.7368 255, 896.2105 255, 905.6842 255, 915.1579 255, 924.6316 255, 934.1053 255, 943.5789 255, 953.0526 255, 962.5263 255, 972 255" style="stroke: rgb(85%,46%,2%); stroke-linecap: round; stroke-width: 1.5; fill: None; fill-rule: evenodd; stroke-dasharray: 4, 2;"/>
				</g>
			</g>
			<text x="72" y="440" style="font-family: Helvetica-Bold; font-size: 11px;fill: rgb(5%,9%,16%); stroke:none;" transform="translate(0,880) scale(1,-1)">Final OSI</text>
			<path d="M 72,423 L 92,423 Z" style="stroke: rgb(5%,9%,16%); stroke-linecap: butt; stroke-width: 2;"/>
			<text x="98" y="420" style="font-family: Helvetica; font-size: 9px;fill: rgb(20%,25%,33%); stroke:none;" transform="translate(0,840) scale(1,-1)">Official OSI</text>
			<path d="M 277,423 L 297,423 Z" style="stroke: rgb(85%,46%,2%); stroke-linecap: butt; stroke-width: 2;"/>
			<text x="303" y="420" style="font-family: Helvetica; font-size: 9px;fill: rgb(20%,25%,33%); stroke:none;" transform="translate(0,840) scale(1,-1)">Current OSI</text>
			<g transform="">
				<g transform="">
					<g transform="">
						<path d="M 72,45 L 972,45 Z" style="stroke: rgb(58%,63%,72%); stroke-linecap: butt; stroke-width: 1;"/>
					</g>
					<g transform="">
						<path d="M 72,45 L 72,40 Z" style="stroke: rgb(58%,63%,72%); stroke-linecap: butt; stroke-width: 1;"/>
						<path d="M 299.368421,45 L 299.368421,40 Z" style="stroke: rgb(58%,63%,72%); stroke-linecap: butt; stroke-width: 1;"/>
						<path d="M 526.736842,45 L 526.736842,40 Z" style="stroke: rgb(58%,63%,72%); stroke-linecap: butt; stroke-width: 1;"/>
						<path d="M 754.105263,45 L 754.105263,40 Z" style="stroke: rgb(58%,63%,72%); stroke-linecap: butt; stroke-width: 1;"/>
						<path d="M 972,45 L 972,40 Z" style="stroke: rgb(58%,63%,72%); stroke-linecap: butt; stroke-width: 1;"/>
					</g>
					<g transform="">
						<g transform=" matrix(1,0,0,1,72,40)">
							<text x="-6.672" y="-8.0" style="font-family: Helvetica; font-size: 8px;fill: rgb(0%,0%,0%); stroke:none;" transform="translate(0,-16) scale(1,-1)">120</text>
						</g>
						<g transform=" matrix(1,0,0,1,299.368421,40)">
							<text x="-6.672" y="-8.0" style="font-family: Helvetica; font-size: 8px;fill: rgb(0%,0%,0%); stroke:none;" transform="translate(0,-16) scale(1,-1)">144</text>
						</g>
						<g transform=" matrix(1,0,0,1,526.736842,40)">
							<text x="-6.672" y="-8.0" style="font-family: Helvetica; font-size: 8px;fill: rgb(0%,0%,0%); stroke:none;" transform="translate(0,-16) scale(1,-1)">168</text>
						</g>
						<g transform=" matrix(1,0,0,1,754.105263,40)">
							<text x="-6.672" y="-8.0" style="font-family: Helvetica; font-size: 8px;fill: rgb(0%,0%,0%); stroke:none;" transform="translate(0,-16) scale(1,-1)">192</text>
						</g>
						<g transform=" matrix(1,0,0,1,972,40)">
							<text x="-6.672" y="-8.0" style="font-family: Helvetica; font-size: 8px;fill: rgb(0%,0%,0%); stroke:none;" transform="translate(0,-16) scale(1,-1)">215</text>
						</g>
					</g>
				</g>
				<g transform="">
					<g transform="">
						<path d="M 72,45 L 72,185 Z" style="stroke: rgb(58%,63%,72%); stroke-linecap: butt; stroke-width: 1;"/>
					</g>
					<g transform="">
						<path d="M 72,45 L 67,45 Z" style="stroke: rgb(58%,63%,72%); stroke-linecap: butt; stroke-width: 1;"/>
						<path d="M 72,83.73181 L 67,83.73181 Z" style="stroke: rgb(58%,63%,72%); stroke-linecap: butt; stroke-width: 1;"/>
						<path d="M 72,122.46362 L 67,122.46362 Z" style="stroke: rgb(58%,63%,72%); stroke-linecap: butt; stroke-width: 1;"/>
						<path d="M 72,161.19543 L 67,161.19543 Z" style="stroke: rgb(58%,63%,72%); stroke-linecap: butt; stroke-width: 1;"/>
					</g>
					<g transform="">
						<g transform=" matrix(1,0,0,1,67,45)">
							<text x="-11.120000000000001" y="-3.2" style="font-family: Helvetica; font-size: 8px;fill: rgb(0%,0%,0%); stroke:none;" transform="translate(0,-6) scale(1,-1)">0.0</text>
						</g>
						<g transform=" matrix(1,0,0,1,67,83.73181)">
							<text x="-15.568" y="-3.2" style="font-family: Helvetica; font-size: 8px;fill: rgb(0%,0%,0%); stroke:none;" transform="translate(0,-6) scale(1,-1)">10.0</text>
						</g>
						<g transform=" matrix(1,0,0,1,67,122.46362)">
							<text x="-15.568" y="-3.2" style="font-family: Helvetica; font-size: 8px;fill: rgb(0%,0%,0%); stroke:none;" transform="translate(0,-6) scale(1,-1)">20.0</text>
						</g>
						<g transform=" matrix(1,0,0,1,67,161.19543)">
							<text x="-15.568" y="-3.2" style="font-family: Helvetica; font-size: 8px;fill: rgb(0%,0%,0%); stroke:none;" transform="translate(0,-6) scale(1,-1)">30.0</text>
						</g>
					</g>
				</g>
				<path d="M 72,83.73181 L 972,83.73181 Z" style="stroke: rgb(88%,90%,94%); stroke-linecap: butt; stroke-width: 0.25;"/>
				<path d="M 72,122.46362 L 972,122.46362 Z" style="stroke: rgb(88%,90%,94%); stroke-linecap: butt; stroke-width: 0.25;"/>
				<path d="M 72,161.19543 L 972,161.19543 Z" style="stroke: rgb(88%,90%,94%); stroke-linecap: butt; stroke-width: 0.25;"/>
				<g transform="">
					<polyline points="72 157.3222, 81.47368 168.9418, 90.94737 145.3154, 100.4211 153.4491, 109.8947 172.815, 119.3684 97.67526, 128.8421 131.7593, 138.3158 147.6393, 147.7895 163.132, 157.2632 156.5476, 166.7368 166.2306, 176.2105 160.0335, 185.6842 156.1603, 195.1579 147.6393, 204.6316 148.8013, 214.1053 152.2871, 223.5789 134.8578, 233.0526 149.9632, 242.5263 133.6958, 252 138.731, 261.4737 177.0755, 270.9474 167.0052, 280.4211 174.7516, 289.8947 132.9212, 299.3684 139.5056, 308.8421 124.0129, 318.3158 172.815, 327.7895 141.4422, 337.2632 132.1466, 346.7368 130.21, 356.2105 140.6676, 365.6842 147.252, 375.1579 137.1817, 384.6316 163.9067, 394.1053 146.09, 403.5789 142.2168, 413.0526 139.1183, 422.5263 127.8861, 432 136.0198, 441.4737 136.7944, 450.9474 138.731, 460.4211 146.09, 469.8947 129.4353, 479.3684 112.006, 488.8421 99.61185, 498.3158 88.76695, 507.7895 85.6684, 517.2632 91.47817, 526.7368 81.79522, 536.2105 75.98545, 545.6842 74.82349, 555.1579 66.3025, 564.6316 66.3025, 574.1053 70.17568, 583.5789 75.59813, 593.0526 75.59813, 602.5263 98.83722, 612 95.73867, 621.4737 110.0694, 630.9474 101.1611, 640.4211 110.0694, 649.8947 106.1963, 659.3684 108.9075, 668.8421 105.0343, 678.3158 103.0977, 687.7895 107.3582, 697.2632 106.5836, 706.7368 91.09085, 716.2105 86.83035, 725.6842 84.89376, 735.1579 80.63327, 744.6316 79.08399, 754.1053 83.73181, 763.5789 85.6684, 773.0526 75.21081, 782.5263 76.37277, 792 75.59813, 801.4737 86.83035, 810.9474 85.28108, 820.4211 81.02058, 829.8947 112.7807, 839.3684 106.1963, 848.8421 99.22453, 858.3158 97.28794, 867.7895 95.35135, 877.2632 85.6684, 886.7368 93.80208, 896.2105 101.5484, 905.6842 91.09085, 915.1579 94.96403, 924.6316 87.21767, 934.1053 67.07713, 943.5789 77.92204, 953.0526 75.21081, 962.5263 68.6264, 972 73.66154" style="stroke: rgb(5%,9%,16%); stroke-linecap: round; stroke-width: 1.5; fill: None; fill-rule: evenodd;"/>
				</g>
			</g>
			<text x="72" y="215" style="font-family: Helvetica-Bold; font-size: 11px;fill: rgb(5%,9%,16%); stroke:none;" transform="translate(0,430) scale(1,-1)">Allowed weather context</text>
			<path d="M 72,198 L 92,198 Z" style="stroke: rgb(5%,9%,16%); stroke-linecap: butt; stroke-width: 2;"/>
			<text x="98" y="195" style="font-family: Helvetica; font-size: 9px;fill: rgb(20%,25%,33%); stroke:none;" transform="translate(0,390) scale(1,-1)">Provided target-hour gust</text>
			<text x="485" y="12" style="font-family: Helvetica; font-size: 9px;fill: rgb(27%,33%,41%); stroke:none;" transform="translate(0,24) scale(1,-1)">Target hour s (history ends at 71)</text>
			<text x="72" y="904" style="font-family: Helvetica; font-size: 10px;fill: rgb(27%,33%,41%); stroke:none;" transform="translate(0,1808) scale(1,-1)">24/48h main OSI uses the same-horizon source; C3 is shown for diagnosis.</text>
		</g>
	</g>
</svg>
